<svg width="600" height="120" viewBox="0 0 600 120" fill="none" xmlns="http://www.w3.org/2000/svg">
<rect width="600" height="120" fill="black"/>
<path d="M84.284 30.588H82.856V37H81.246V30.588H80.336V29.286H81.246V28.74C81.246 27.8533 81.4793 27.2093 81.946 26.808C82.422 26.3973 83.164 26.192 84.172 26.192V27.522C83.6867 27.522 83.346 27.6153 83.15 27.802C82.954 27.9793 82.856 28.292 82.856 28.74V29.286H84.284V30.588ZM92.6844 29.286V37H91.0884V36.09C90.8364 36.4073 90.5051 36.6593 90.0944 36.846C89.6931 37.0233 89.2638 37.112 88.8064 37.112C88.1998 37.112 87.6538 36.986 87.1684 36.734C86.6924 36.482 86.3144 36.1087 86.0344 35.614C85.7638 35.1193 85.6284 34.522 85.6284 33.822V29.286H87.2104V33.584C87.2104 34.2747 87.3831 34.8067 87.7284 35.18C88.0738 35.544 88.5451 35.726 89.1424 35.726C89.7398 35.726 90.2111 35.544 90.5564 35.18C90.9111 34.8067 91.0884 34.2747 91.0884 33.584V29.286H92.6844ZM96.3862 30.406C96.6196 30.014 96.9276 29.7107 97.3102 29.496C97.7022 29.272 98.1642 29.16 98.6962 29.16V30.812H98.2902C97.6649 30.812 97.1889 30.9707 96.8622 31.288C96.5449 31.6053 96.3862 32.156 96.3862 32.94V37H94.7902V29.286H96.3862V30.406ZM99.6313 33.108C99.6313 32.3333 99.7899 31.6473 100.107 31.05C100.434 30.4527 100.873 29.9907 101.423 29.664C101.983 29.328 102.604 29.16 103.285 29.16C103.883 29.16 104.41 29.2813 104.867 29.524C105.334 29.7667 105.693 30.0607 105.945 30.406V29.286H107.555V40.668H105.945V35.88C105.693 36.2253 105.329 36.5193 104.853 36.762C104.377 37.0047 103.836 37.126 103.229 37.126C102.567 37.126 101.96 36.958 101.409 36.622C100.868 36.2767 100.434 35.8007 100.107 35.194C99.7899 34.578 99.6313 33.8827 99.6313 33.108ZM105.945 33.136C105.945 32.604 105.833 32.142 105.609 31.75C105.395 31.358 105.11 31.0593 104.755 30.854C104.401 30.6487 104.018 30.546 103.607 30.546C103.197 30.546 102.814 30.6487 102.459 30.854C102.105 31.05 101.815 31.344 101.591 31.736C101.377 32.1187 101.269 32.576 101.269 33.108C101.269 33.64 101.377 34.1067 101.591 34.508C101.815 34.9093 102.105 35.2173 102.459 35.432C102.823 35.6373 103.206 35.74 103.607 35.74C104.018 35.74 104.401 35.6373 104.755 35.432C105.11 35.2267 105.395 34.928 105.609 34.536C105.833 34.1347 105.945 33.668 105.945 33.136ZM116.638 29.286V37H115.042V36.09C114.79 36.4073 114.458 36.6593 114.048 36.846C113.646 37.0233 113.217 37.112 112.76 37.112C112.153 37.112 111.607 36.986 111.122 36.734C110.646 36.482 110.268 36.1087 109.988 35.614C109.717 35.1193 109.582 34.522 109.582 33.822V29.286H111.164V33.584C111.164 34.2747 111.336 34.8067 111.682 35.18C112.027 35.544 112.498 35.726 113.096 35.726C113.693 35.726 114.164 35.544 114.51 35.18C114.864 34.8067 115.042 34.2747 115.042 33.584V29.286H116.638ZM118.211 33.108C118.211 32.3333 118.37 31.6473 118.687 31.05C119.014 30.4527 119.453 29.9907 120.003 29.664C120.563 29.328 121.179 29.16 121.851 29.16C122.458 29.16 122.985 29.2813 123.433 29.524C123.891 29.7573 124.255 30.0513 124.525 30.406V29.286H126.135V37H124.525V35.852C124.255 36.216 123.886 36.5193 123.419 36.762C122.953 37.0047 122.421 37.126 121.823 37.126C121.161 37.126 120.554 36.958 120.003 36.622C119.453 36.2767 119.014 35.8007 118.687 35.194C118.37 34.578 118.211 33.8827 118.211 33.108ZM124.525 33.136C124.525 32.604 124.413 32.142 124.189 31.75C123.975 31.358 123.69 31.0593 123.335 30.854C122.981 30.6487 122.598 30.546 122.187 30.546C121.777 30.546 121.394 30.6487 121.039 30.854C120.685 31.05 120.395 31.344 120.171 31.736C119.957 32.1187 119.849 32.576 119.849 33.108C119.849 33.64 119.957 34.1067 120.171 34.508C120.395 34.9093 120.685 35.2173 121.039 35.432C121.403 35.6373 121.786 35.74 122.187 35.74C122.598 35.74 122.981 35.6373 123.335 35.432C123.69 35.2267 123.975 34.928 124.189 34.536C124.413 34.1347 124.525 33.668 124.525 33.136ZM132.124 29.16C132.73 29.16 133.272 29.286 133.748 29.538C134.233 29.79 134.611 30.1633 134.882 30.658C135.152 31.1527 135.288 31.75 135.288 32.45V37H133.706V32.688C133.706 31.9973 133.533 31.47 133.188 31.106C132.842 30.7327 132.371 30.546 131.774 30.546C131.176 30.546 130.7 30.7327 130.346 31.106C130 31.47 129.828 31.9973 129.828 32.688V37H128.232V29.286H129.828V30.168C130.089 29.8507 130.42 29.6033 130.822 29.426C131.232 29.2487 131.666 29.16 132.124 29.16ZM136.903 28.25V26.794H139.815V37H138.205V28.25H136.903ZM142.008 31.764C142.008 30.1493 142.279 28.8893 142.82 27.984C143.371 27.0693 144.313 26.612 145.648 26.612C146.983 26.612 147.921 27.0693 148.462 27.984C149.013 28.8893 149.288 30.1493 149.288 31.764C149.288 33.3973 149.013 34.676 148.462 35.6C147.921 36.5147 146.983 36.972 145.648 36.972C144.313 36.972 143.371 36.5147 142.82 35.6C142.279 34.676 142.008 33.3973 142.008 31.764ZM147.72 31.764C147.72 31.008 147.669 30.3687 147.566 29.846C147.473 29.3233 147.277 28.8987 146.978 28.572C146.679 28.236 146.236 28.068 145.648 28.068C145.06 28.068 144.617 28.236 144.318 28.572C144.019 28.8987 143.819 29.3233 143.716 29.846C143.623 30.3687 143.576 31.008 143.576 31.764C143.576 32.548 143.623 33.206 143.716 33.738C143.809 34.27 144.005 34.6993 144.304 35.026C144.612 35.3527 145.06 35.516 145.648 35.516C146.236 35.516 146.679 35.3527 146.978 35.026C147.286 34.6993 147.487 34.27 147.58 33.738C147.673 33.206 147.72 32.548 147.72 31.764ZM150.767 28.25V26.794H153.679V37H152.069V28.25H150.767Z" fill="white"/>
<path d="M82.98 55.07C82.52 55.07 82.1067 54.99 81.74 54.83C81.38 54.6633 81.0967 54.4367 80.89 54.15C80.6833 53.8567 80.5767 53.52 80.57 53.14H81.54C81.5733 53.4667 81.7067 53.7433 81.94 53.97C82.18 54.19 82.5267 54.3 82.98 54.3C83.4133 54.3 83.7533 54.1933 84 53.98C84.2533 53.76 84.38 53.48 84.38 53.14C84.38 52.8733 84.3067 52.6567 84.16 52.49C84.0133 52.3233 83.83 52.1967 83.61 52.11C83.39 52.0233 83.0933 51.93 82.72 51.83C82.26 51.71 81.89 51.59 81.61 51.47C81.3367 51.35 81.1 51.1633 80.9 50.91C80.7067 50.65 80.61 50.3033 80.61 49.87C80.61 49.49 80.7067 49.1533 80.9 48.86C81.0933 48.5667 81.3633 48.34 81.71 48.18C82.0633 48.02 82.4667 47.94 82.92 47.94C83.5733 47.94 84.1067 48.1033 84.52 48.43C84.94 48.7567 85.1767 49.19 85.23 49.73H84.23C84.1967 49.4633 84.0567 49.23 83.81 49.03C83.5633 48.8233 83.2367 48.72 82.83 48.72C82.45 48.72 82.14 48.82 81.9 49.02C81.66 49.2133 81.54 49.4867 81.54 49.84C81.54 50.0933 81.61 50.3 81.75 50.46C81.8967 50.62 82.0733 50.7433 82.28 50.83C82.4933 50.91 82.79 51.0033 83.17 51.11C83.63 51.2367 84 51.3633 84.28 51.49C84.56 51.61 84.8 51.8 85 52.06C85.2 52.3133 85.3 52.66 85.3 53.1C85.3 53.44 85.21 53.76 85.03 54.06C84.85 54.36 84.5833 54.6033 84.23 54.79C83.8767 54.9767 83.46 55.07 82.98 55.07ZM91.6391 52.05C91.6391 52.2233 91.6291 52.4067 91.6091 52.6H87.2291C87.2625 53.14 87.4458 53.5633 87.7791 53.87C88.1191 54.17 88.5291 54.32 89.0091 54.32C89.4025 54.32 89.7291 54.23 89.9891 54.05C90.2558 53.8633 90.4425 53.6167 90.5491 53.31H91.5291C91.3825 53.8367 91.0891 54.2667 90.6491 54.6C90.2091 54.9267 89.6625 55.09 89.0091 55.09C88.4891 55.09 88.0225 54.9733 87.6091 54.74C87.2025 54.5067 86.8825 54.1767 86.6491 53.75C86.4158 53.3167 86.2991 52.8167 86.2991 52.25C86.2991 51.6833 86.4125 51.1867 86.6391 50.76C86.8658 50.3333 87.1825 50.0067 87.5891 49.78C88.0025 49.5467 88.4758 49.43 89.0091 49.43C89.5291 49.43 89.9891 49.5433 90.3891 49.77C90.7891 49.9967 91.0958 50.31 91.3091 50.71C91.5291 51.1033 91.6391 51.55 91.6391 52.05ZM90.6991 51.86C90.6991 51.5133 90.6225 51.2167 90.4691 50.97C90.3158 50.7167 90.1058 50.5267 89.8391 50.4C89.5791 50.2667 89.2891 50.2 88.9691 50.2C88.5091 50.2 88.1158 50.3467 87.7891 50.64C87.4691 50.9333 87.2858 51.34 87.2391 51.86H90.6991ZM95.5103 49.42C96.177 49.42 96.717 49.6233 97.1303 50.03C97.5436 50.43 97.7503 51.01 97.7503 51.77V55H96.8503V51.9C96.8503 51.3533 96.7136 50.9367 96.4403 50.65C96.167 50.3567 95.7936 50.21 95.3203 50.21C94.8403 50.21 94.457 50.36 94.1703 50.66C93.8903 50.96 93.7503 51.3967 93.7503 51.97V55H92.8403V49.52H93.7503V50.3C93.9303 50.02 94.1736 49.8033 94.4803 49.65C94.7936 49.4967 95.137 49.42 95.5103 49.42ZM100.347 50.27V53.5C100.347 53.7667 100.403 53.9567 100.517 54.07C100.63 54.1767 100.827 54.23 101.107 54.23H101.777V55H100.957C100.45 55 100.07 54.8833 99.8168 54.65C99.5635 54.4167 99.4368 54.0333 99.4368 53.5V50.27H98.7268V49.52H99.4368V48.14H100.347V49.52H101.777V50.27H100.347ZM106.655 50.27V53.5C106.655 53.7667 106.712 53.9567 106.825 54.07C106.939 54.1767 107.135 54.23 107.415 54.23H108.085V55H107.265C106.759 55 106.379 54.8833 106.125 54.65C105.872 54.4167 105.745 54.0333 105.745 53.5V50.27H105.035V49.52H105.745V48.14H106.655V49.52H108.085V50.27H106.655ZM111.578 55.09C111.065 55.09 110.598 54.9733 110.178 54.74C109.765 54.5067 109.438 54.1767 109.198 53.75C108.965 53.3167 108.848 52.8167 108.848 52.25C108.848 51.69 108.968 51.1967 109.208 50.77C109.455 50.3367 109.788 50.0067 110.208 49.78C110.628 49.5467 111.098 49.43 111.618 49.43C112.138 49.43 112.608 49.5467 113.028 49.78C113.448 50.0067 113.778 50.3333 114.018 50.76C114.265 51.1867 114.388 51.6833 114.388 52.25C114.388 52.8167 114.261 53.3167 114.008 53.75C113.761 54.1767 113.425 54.5067 112.998 54.74C112.571 54.9733 112.098 55.09 111.578 55.09ZM111.578 54.29C111.905 54.29 112.211 54.2133 112.498 54.06C112.785 53.9067 113.015 53.6767 113.188 53.37C113.368 53.0633 113.458 52.69 113.458 52.25C113.458 51.81 113.371 51.4367 113.198 51.13C113.025 50.8233 112.798 50.5967 112.518 50.45C112.238 50.2967 111.935 50.22 111.608 50.22C111.275 50.22 110.968 50.2967 110.688 50.45C110.415 50.5967 110.195 50.8233 110.028 51.13C109.861 51.4367 109.778 51.81 109.778 52.25C109.778 52.6967 109.858 53.0733 110.018 53.38C110.185 53.6867 110.405 53.9167 110.678 54.07C110.951 54.2167 111.251 54.29 111.578 54.29ZM122.97 49.52L119.67 57.58H118.73L119.81 54.94L117.6 49.52H118.61L120.33 53.96L122.03 49.52H122.97ZM126.275 55.09C125.762 55.09 125.295 54.9733 124.875 54.74C124.462 54.5067 124.135 54.1767 123.895 53.75C123.662 53.3167 123.545 52.8167 123.545 52.25C123.545 51.69 123.665 51.1967 123.905 50.77C124.152 50.3367 124.485 50.0067 124.905 49.78C125.325 49.5467 125.795 49.43 126.315 49.43C126.835 49.43 127.305 49.5467 127.725 49.78C128.145 50.0067 128.475 50.3333 128.715 50.76C128.962 51.1867 129.085 51.6833 129.085 52.25C129.085 52.8167 128.959 53.3167 128.705 53.75C128.459 54.1767 128.122 54.5067 127.695 54.74C127.269 54.9733 126.795 55.09 126.275 55.09ZM126.275 54.29C126.602 54.29 126.909 54.2133 127.195 54.06C127.482 53.9067 127.712 53.6767 127.885 53.37C128.065 53.0633 128.155 52.69 128.155 52.25C128.155 51.81 128.069 51.4367 127.895 51.13C127.722 50.8233 127.495 50.5967 127.215 50.45C126.935 50.2967 126.632 50.22 126.305 50.22C125.972 50.22 125.665 50.2967 125.385 50.45C125.112 50.5967 124.892 50.8233 124.725 51.13C124.559 51.4367 124.475 51.81 124.475 52.25C124.475 52.6967 124.555 53.0733 124.715 53.38C124.882 53.6867 125.102 53.9167 125.375 54.07C125.649 54.2167 125.949 54.29 126.275 54.29ZM135.142 49.52V55H134.232V54.19C134.058 54.47 133.815 54.69 133.502 54.85C133.195 55.0033 132.855 55.08 132.482 55.08C132.055 55.08 131.672 54.9933 131.332 54.82C130.992 54.64 130.722 54.3733 130.522 54.02C130.328 53.6667 130.232 53.2367 130.232 52.73V49.52H131.132V52.61C131.132 53.15 131.268 53.5667 131.542 53.86C131.815 54.1467 132.188 54.29 132.662 54.29C133.148 54.29 133.532 54.14 133.812 53.84C134.092 53.54 134.232 53.1033 134.232 52.53V49.52H135.142ZM141.574 50.27H140.424V55H139.514V50.27H138.804V49.52H139.514V49.13C139.514 48.5167 139.671 48.07 139.984 47.79C140.304 47.5033 140.814 47.36 141.514 47.36V48.12C141.114 48.12 140.831 48.2 140.664 48.36C140.504 48.5133 140.424 48.77 140.424 49.13V49.52H141.574V50.27ZM143.545 50.41C143.705 50.0967 143.932 49.8533 144.225 49.68C144.525 49.5067 144.889 49.42 145.315 49.42V50.36H145.075C144.055 50.36 143.545 50.9133 143.545 52.02V55H142.635V49.52H143.545V50.41ZM148.756 55.09C148.242 55.09 147.776 54.9733 147.356 54.74C146.942 54.5067 146.616 54.1767 146.376 53.75C146.142 53.3167 146.026 52.8167 146.026 52.25C146.026 51.69 146.146 51.1967 146.386 50.77C146.632 50.3367 146.966 50.0067 147.386 49.78C147.806 49.5467 148.276 49.43 148.796 49.43C149.316 49.43 149.786 49.5467 150.206 49.78C150.626 50.0067 150.956 50.3333 151.196 50.76C151.442 51.1867 151.566 51.6833 151.566 52.25C151.566 52.8167 151.439 53.3167 151.186 53.75C150.939 54.1767 150.602 54.5067 150.176 54.74C149.749 54.9733 149.276 55.09 148.756 55.09ZM148.756 54.29C149.082 54.29 149.389 54.2133 149.676 54.06C149.962 53.9067 150.192 53.6767 150.366 53.37C150.546 53.0633 150.636 52.69 150.636 52.25C150.636 51.81 150.549 51.4367 150.376 51.13C150.202 50.8233 149.976 50.5967 149.696 50.45C149.416 50.2967 149.112 50.22 148.786 50.22C148.452 50.22 148.146 50.2967 147.866 50.45C147.592 50.5967 147.372 50.8233 147.206 51.13C147.039 51.4367 146.956 51.81 146.956 52.25C146.956 52.6967 147.036 53.0733 147.196 53.38C147.362 53.6867 147.582 53.9167 147.856 54.07C148.129 54.2167 148.429 54.29 148.756 54.29ZM159.352 49.42C159.779 49.42 160.159 49.51 160.492 49.69C160.826 49.8633 161.089 50.1267 161.282 50.48C161.476 50.8333 161.572 51.2633 161.572 51.77V55H160.672V51.9C160.672 51.3533 160.536 50.9367 160.262 50.65C159.996 50.3567 159.632 50.21 159.172 50.21C158.699 50.21 158.322 50.3633 158.042 50.67C157.762 50.97 157.622 51.4067 157.622 51.98V55H156.722V51.9C156.722 51.3533 156.586 50.9367 156.312 50.65C156.046 50.3567 155.682 50.21 155.222 50.21C154.749 50.21 154.372 50.3633 154.092 50.67C153.812 50.97 153.672 51.4067 153.672 51.98V55H152.762V49.52H153.672V50.31C153.852 50.0233 154.092 49.8033 154.392 49.65C154.699 49.4967 155.036 49.42 155.402 49.42C155.862 49.42 156.269 49.5233 156.622 49.73C156.976 49.9367 157.239 50.24 157.412 50.64C157.566 50.2533 157.819 49.9533 158.172 49.74C158.526 49.5267 158.919 49.42 159.352 49.42ZM166.641 54.26H169.081V55H165.731V48.03H166.641V54.26ZM172.437 55.09C171.924 55.09 171.457 54.9733 171.037 54.74C170.624 54.5067 170.297 54.1767 170.057 53.75C169.824 53.3167 169.707 52.8167 169.707 52.25C169.707 51.69 169.827 51.1967 170.067 50.77C170.314 50.3367 170.647 50.0067 171.067 49.78C171.487 49.5467 171.957 49.43 172.477 49.43C172.997 49.43 173.467 49.5467 173.887 49.78C174.307 50.0067 174.637 50.3333 174.877 50.76C175.124 51.1867 175.247 51.6833 175.247 52.25C175.247 52.8167 175.121 53.3167 174.867 53.75C174.621 54.1767 174.284 54.5067 173.857 54.74C173.431 54.9733 172.957 55.09 172.437 55.09ZM172.437 54.29C172.764 54.29 173.071 54.2133 173.357 54.06C173.644 53.9067 173.874 53.6767 174.047 53.37C174.227 53.0633 174.317 52.69 174.317 52.25C174.317 51.81 174.231 51.4367 174.057 51.13C173.884 50.8233 173.657 50.5967 173.377 50.45C173.097 50.2967 172.794 50.22 172.467 50.22C172.134 50.22 171.827 50.2967 171.547 50.45C171.274 50.5967 171.054 50.8233 170.887 51.13C170.721 51.4367 170.637 51.81 170.637 52.25C170.637 52.6967 170.717 53.0733 170.877 53.38C171.044 53.6867 171.264 53.9167 171.537 54.07C171.811 54.2167 172.111 54.29 172.437 54.29ZM179.114 49.42C179.78 49.42 180.32 49.6233 180.734 50.03C181.147 50.43 181.354 51.01 181.354 51.77V55H180.454V51.9C180.454 51.3533 180.317 50.9367 180.044 50.65C179.77 50.3567 179.397 50.21 178.924 50.21C178.444 50.21 178.06 50.36 177.774 50.66C177.494 50.96 177.354 51.3967 177.354 51.97V55H176.444V49.52H177.354V50.3C177.534 50.02 177.777 49.8033 178.084 49.65C178.397 49.4967 178.74 49.42 179.114 49.42ZM182.5 52.24C182.5 51.68 182.614 51.19 182.84 50.77C183.067 50.3433 183.377 50.0133 183.77 49.78C184.17 49.5467 184.617 49.43 185.11 49.43C185.537 49.43 185.934 49.53 186.3 49.73C186.667 49.9233 186.947 50.18 187.14 50.5V47.6H188.06V55H187.14V53.97C186.96 54.2967 186.694 54.5667 186.34 54.78C185.987 54.9867 185.574 55.09 185.1 55.09C184.614 55.09 184.17 54.97 183.77 54.73C183.377 54.49 183.067 54.1533 182.84 53.72C182.614 53.2867 182.5 52.7933 182.5 52.24ZM187.14 52.25C187.14 51.8367 187.057 51.4767 186.89 51.17C186.724 50.8633 186.497 50.63 186.21 50.47C185.93 50.3033 185.62 50.22 185.28 50.22C184.94 50.22 184.63 50.3 184.35 50.46C184.07 50.62 183.847 50.8533 183.68 51.16C183.514 51.4667 183.43 51.8267 183.43 52.24C183.43 52.66 183.514 53.0267 183.68 53.34C183.847 53.6467 184.07 53.8833 184.35 54.05C184.63 54.21 184.94 54.29 185.28 54.29C185.62 54.29 185.93 54.21 186.21 54.05C186.497 53.8833 186.724 53.6467 186.89 53.34C187.057 53.0267 187.14 52.6633 187.14 52.25ZM191.988 55.09C191.475 55.09 191.008 54.9733 190.588 54.74C190.175 54.5067 189.848 54.1767 189.608 53.75C189.375 53.3167 189.258 52.8167 189.258 52.25C189.258 51.69 189.378 51.1967 189.618 50.77C189.865 50.3367 190.198 50.0067 190.618 49.78C191.038 49.5467 191.508 49.43 192.028 49.43C192.548 49.43 193.018 49.5467 193.438 49.78C193.858 50.0067 194.188 50.3333 194.428 50.76C194.675 51.1867 194.798 51.6833 194.798 52.25C194.798 52.8167 194.671 53.3167 194.418 53.75C194.171 54.1767 193.835 54.5067 193.408 54.74C192.981 54.9733 192.508 55.09 191.988 55.09ZM191.988 54.29C192.315 54.29 192.621 54.2133 192.908 54.06C193.195 53.9067 193.425 53.6767 193.598 53.37C193.778 53.0633 193.868 52.69 193.868 52.25C193.868 51.81 193.781 51.4367 193.608 51.13C193.435 50.8233 193.208 50.5967 192.928 50.45C192.648 50.2967 192.345 50.22 192.018 50.22C191.685 50.22 191.378 50.2967 191.098 50.45C190.825 50.5967 190.605 50.8233 190.438 51.13C190.271 51.4367 190.188 51.81 190.188 52.25C190.188 52.6967 190.268 53.0733 190.428 53.38C190.595 53.6867 190.815 53.9167 191.088 54.07C191.361 54.2167 191.661 54.29 191.988 54.29ZM198.665 49.42C199.331 49.42 199.871 49.6233 200.285 50.03C200.698 50.43 200.905 51.01 200.905 51.77V55H200.005V51.9C200.005 51.3533 199.868 50.9367 199.595 50.65C199.321 50.3567 198.948 50.21 198.475 50.21C197.995 50.21 197.611 50.36 197.325 50.66C197.045 50.96 196.905 51.3967 196.905 51.97V55H195.995V49.52H196.905V50.3C197.085 50.02 197.328 49.8033 197.635 49.65C197.948 49.4967 198.291 49.42 198.665 49.42ZM202.681 55.06C202.508 55.06 202.361 55 202.241 54.88C202.121 54.76 202.061 54.6133 202.061 54.44C202.061 54.2667 202.121 54.12 202.241 54C202.361 53.88 202.508 53.82 202.681 53.82C202.848 53.82 202.988 53.88 203.101 54C203.221 54.12 203.281 54.2667 203.281 54.44C203.281 54.6133 203.221 54.76 203.101 54.88C202.988 55 202.848 55.06 202.681 55.06Z" fill="white"/>
<path d="M95.3337 70.4733C95.3666 69.5191 95.158 68.572 94.727 67.72C94.4346 67.3704 94.0288 67.1345 93.5803 67.0533C91.7254 66.885 89.8627 66.816 88.0003 66.8467C86.1448 66.8146 84.2888 66.8814 82.4403 67.0467C82.0749 67.1131 81.7367 67.2846 81.467 67.54C80.867 68.0933 80.8003 69.04 80.7337 69.84C80.637 71.2784 80.637 72.7216 80.7337 74.16C80.753 74.6103 80.82 75.0572 80.9337 75.4933C81.0141 75.83 81.1767 76.1416 81.407 76.4C81.6785 76.669 82.0246 76.8501 82.4003 76.92C83.8376 77.0974 85.2858 77.1709 86.7337 77.14C89.067 77.1733 91.1137 77.14 93.5337 76.9533C93.9186 76.8878 94.2745 76.7064 94.5537 76.4333C94.7403 76.2466 94.8797 76.0181 94.9603 75.7667C95.1988 75.0351 95.3159 74.2694 95.307 73.5C95.3337 73.1267 95.3337 70.8733 95.3337 70.4733ZM86.4937 73.9V69.7733L90.4403 71.8467C89.3337 72.46 87.8737 73.1533 86.4937 73.9Z" fill="white"/>
<path d="M118.666 67.8666C118.165 68.084 117.635 68.2277 117.093 68.2932C117.665 67.9514 118.094 67.4138 118.3 66.7799C117.762 67.0999 117.174 67.3254 116.56 67.4466C116.149 67.0016 115.603 66.7054 115.006 66.6045C114.409 66.5035 113.796 66.6035 113.262 66.8887C112.728 67.1739 112.304 67.6282 112.057 68.1805C111.809 68.7327 111.751 69.3515 111.893 69.9399C110.806 69.8849 109.743 69.6019 108.772 69.1091C107.802 68.6164 106.946 67.925 106.26 67.0799C106.019 67.5 105.893 67.9758 105.893 68.4599C105.892 68.9095 106.002 69.3523 106.214 69.7489C106.426 70.1456 106.732 70.4837 107.106 70.7332C106.672 70.7214 106.246 70.6048 105.866 70.3932V70.4266C105.87 71.0565 106.09 71.666 106.491 72.1519C106.892 72.6378 107.449 72.9703 108.066 73.0932C107.829 73.1656 107.582 73.2038 107.333 73.2066C107.161 73.2046 106.989 73.1889 106.82 73.1599C106.996 73.7018 107.336 74.1753 107.794 74.5147C108.251 74.854 108.803 75.0423 109.373 75.0532C108.411 75.8101 107.224 76.2231 106 76.2266C105.777 76.2273 105.554 76.2139 105.333 76.1866C106.583 76.9934 108.039 77.4217 109.526 77.4199C110.553 77.4306 111.571 77.2366 112.522 76.8493C113.472 76.462 114.336 75.8892 115.063 75.1642C115.79 74.4393 116.365 73.5768 116.755 72.6272C117.144 71.6775 117.341 70.6597 117.333 69.6332C117.333 69.5199 117.333 69.3999 117.333 69.2799C117.856 68.8898 118.307 68.4115 118.666 67.8666Z" fill="white"/>
<path d="M130.666 66.6667H141.333C142.066 66.6667 142.666 67.2667 142.666 68.0001V76.0001C142.666 76.7334 142.066 77.3334 141.333 77.3334H130.666C129.933 77.3334 129.333 76.7334 129.333 76.0001V68.0001C129.333 67.2667 129.933 66.6667 130.666 66.6667Z" stroke="white" stroke-width="1.33333" stroke-linecap="round" stroke-linejoin="round"/>
<path d="M142.666 68L136 72.6667L129.333 68" stroke="white" stroke-width="1.33333" stroke-linecap="round" stroke-linejoin="round"/>
<path d="M84.71 90.03V90.77H81.68V93.12H84.14V93.86H81.68V97H80.77V90.03H84.71ZM90.8091 94.05C90.8091 94.2233 90.7991 94.4067 90.7791 94.6H86.3991C86.4324 95.14 86.6157 95.5633 86.9491 95.87C87.2891 96.17 87.6991 96.32 88.1791 96.32C88.5724 96.32 88.8991 96.23 89.1591 96.05C89.4257 95.8633 89.6124 95.6167 89.7191 95.31H90.6991C90.5524 95.8367 90.2591 96.2667 89.8191 96.6C89.3791 96.9267 88.8324 97.09 88.1791 97.09C87.6591 97.09 87.1924 96.9733 86.7791 96.74C86.3724 96.5067 86.0524 96.1767 85.8191 95.75C85.5857 95.3167 85.4691 94.8167 85.4691 94.25C85.4691 93.6833 85.5824 93.1867 85.8091 92.76C86.0357 92.3333 86.3524 92.0067 86.7591 91.78C87.1724 91.5467 87.6457 91.43 88.1791 91.43C88.6991 91.43 89.1591 91.5433 89.5591 91.77C89.9591 91.9967 90.2657 92.31 90.4791 92.71C90.6991 93.1033 90.8091 93.55 90.8091 94.05ZM89.8691 93.86C89.8691 93.5133 89.7924 93.2167 89.6391 92.97C89.4857 92.7167 89.2757 92.5267 89.0091 92.4C88.7491 92.2667 88.4591 92.2 88.1391 92.2C87.6791 92.2 87.2857 92.3467 86.9591 92.64C86.6391 92.9333 86.4557 93.34 86.4091 93.86H89.8691ZM97.0102 94.05C97.0102 94.2233 97.0002 94.4067 96.9802 94.6H92.6002C92.6336 95.14 92.8169 95.5633 93.1502 95.87C93.4902 96.17 93.9002 96.32 94.3802 96.32C94.7736 96.32 95.1002 96.23 95.3602 96.05C95.6269 95.8633 95.8136 95.6167 95.9202 95.31H96.9002C96.7536 95.8367 96.4602 96.2667 96.0202 96.6C95.5802 96.9267 95.0336 97.09 94.3802 97.09C93.8602 97.09 93.3936 96.9733 92.9802 96.74C92.5736 96.5067 92.2536 96.1767 92.0202 95.75C91.7869 95.3167 91.6702 94.8167 91.6702 94.25C91.6702 93.6833 91.7836 93.1867 92.0102 92.76C92.2369 92.3333 92.5536 92.0067 92.9602 91.78C93.3736 91.5467 93.8469 91.43 94.3802 91.43C94.9002 91.43 95.3602 91.5433 95.7602 91.77C96.1602 91.9967 96.4669 92.31 96.6802 92.71C96.9002 93.1033 97.0102 93.55 97.0102 94.05ZM96.0702 93.86C96.0702 93.5133 95.9936 93.2167 95.8402 92.97C95.6869 92.7167 95.4769 92.5267 95.2102 92.4C94.9502 92.2667 94.6602 92.2 94.3402 92.2C93.8802 92.2 93.4869 92.3467 93.1602 92.64C92.8402 92.9333 92.6569 93.34 92.6102 93.86H96.0702ZM99.1214 89.6V97H98.2114V89.6H99.1214ZM105.568 92.27H104.418V97H103.508V92.27H102.798V91.52H103.508V91.13C103.508 90.5167 103.665 90.07 103.978 89.79C104.298 89.5033 104.808 89.36 105.508 89.36V90.12C105.108 90.12 104.825 90.2 104.658 90.36C104.498 90.5133 104.418 90.77 104.418 91.13V91.52H105.568V92.27ZM107.539 92.41C107.699 92.0967 107.926 91.8533 108.219 91.68C108.519 91.5067 108.883 91.42 109.309 91.42V92.36H109.069C108.049 92.36 107.539 92.9133 107.539 94.02V97H106.629V91.52H107.539V92.41ZM115.36 94.05C115.36 94.2233 115.35 94.4067 115.33 94.6H110.95C110.983 95.14 111.167 95.5633 111.5 95.87C111.84 96.17 112.25 96.32 112.73 96.32C113.123 96.32 113.45 96.23 113.71 96.05C113.977 95.8633 114.163 95.6167 114.27 95.31H115.25C115.103 95.8367 114.81 96.2667 114.37 96.6C113.93 96.9267 113.383 97.09 112.73 97.09C112.21 97.09 111.743 96.9733 111.33 96.74C110.923 96.5067 110.603 96.1767 110.37 95.75C110.137 95.3167 110.02 94.8167 110.02 94.25C110.02 93.6833 110.133 93.1867 110.36 92.76C110.587 92.3333 110.903 92.0067 111.31 91.78C111.723 91.5467 112.197 91.43 112.73 91.43C113.25 91.43 113.71 91.5433 114.11 91.77C114.51 91.9967 114.817 92.31 115.03 92.71C115.25 93.1033 115.36 93.55 115.36 94.05ZM114.42 93.86C114.42 93.5133 114.343 93.2167 114.19 92.97C114.037 92.7167 113.827 92.5267 113.56 92.4C113.3 92.2667 113.01 92.2 112.69 92.2C112.23 92.2 111.837 92.3467 111.51 92.64C111.19 92.9333 111.007 93.34 110.96 93.86H114.42ZM121.561 94.05C121.561 94.2233 121.551 94.4067 121.531 94.6H117.151C117.184 95.14 117.368 95.5633 117.701 95.87C118.041 96.17 118.451 96.32 118.931 96.32C119.324 96.32 119.651 96.23 119.911 96.05C120.178 95.8633 120.364 95.6167 120.471 95.31H121.451C121.304 95.8367 121.011 96.2667 120.571 96.6C120.131 96.9267 119.584 97.09 118.931 97.09C118.411 97.09 117.944 96.9733 117.531 96.74C117.124 96.5067 116.804 96.1767 116.571 95.75C116.338 95.3167 116.221 94.8167 116.221 94.25C116.221 93.6833 116.334 93.1867 116.561 92.76C116.788 92.3333 117.104 92.0067 117.511 91.78C117.924 91.5467 118.398 91.43 118.931 91.43C119.451 91.43 119.911 91.5433 120.311 91.77C120.711 91.9967 121.018 92.31 121.231 92.71C121.451 93.1033 121.561 93.55 121.561 94.05ZM120.621 93.86C120.621 93.5133 120.544 93.2167 120.391 92.97C120.238 92.7167 120.028 92.5267 119.761 92.4C119.501 92.2667 119.211 92.2 118.891 92.2C118.431 92.2 118.038 92.3467 117.711 92.64C117.391 92.9333 117.208 93.34 117.161 93.86H120.621ZM126.538 92.27V95.5C126.538 95.7667 126.595 95.9567 126.708 96.07C126.822 96.1767 127.018 96.23 127.298 96.23H127.968V97H127.148C126.642 97 126.262 96.8833 126.008 96.65C125.755 96.4167 125.628 96.0333 125.628 95.5V92.27H124.918V91.52H125.628V90.14H126.538V91.52H127.968V92.27H126.538ZM131.461 97.09C130.947 97.09 130.481 96.9733 130.061 96.74C129.647 96.5067 129.321 96.1767 129.081 95.75C128.847 95.3167 128.731 94.8167 128.731 94.25C128.731 93.69 128.851 93.1967 129.091 92.77C129.337 92.3367 129.671 92.0067 130.091 91.78C130.511 91.5467 130.981 91.43 131.501 91.43C132.021 91.43 132.491 91.5467 132.911 91.78C133.331 92.0067 133.661 92.3333 133.901 92.76C134.147 93.1867 134.271 93.6833 134.271 94.25C134.271 94.8167 134.144 95.3167 133.891 95.75C133.644 96.1767 133.307 96.5067 132.881 96.74C132.454 96.9733 131.981 97.09 131.461 97.09ZM131.461 96.29C131.787 96.29 132.094 96.2133 132.381 96.06C132.667 95.9067 132.897 95.6767 133.071 95.37C133.251 95.0633 133.341 94.69 133.341 94.25C133.341 93.81 133.254 93.4367 133.081 93.13C132.907 92.8233 132.681 92.5967 132.401 92.45C132.121 92.2967 131.817 92.22 131.491 92.22C131.157 92.22 130.851 92.2967 130.571 92.45C130.297 92.5967 130.077 92.8233 129.911 93.13C129.744 93.4367 129.661 93.81 129.661 94.25C129.661 94.6967 129.741 95.0733 129.901 95.38C130.067 95.6867 130.287 95.9167 130.561 96.07C130.834 96.2167 131.134 96.29 131.461 96.29ZM143.283 91.46V97H141.873V96.3C141.693 96.54 141.457 96.73 141.163 96.87C140.877 97.0033 140.563 97.07 140.223 97.07C139.79 97.07 139.407 96.98 139.073 96.8C138.74 96.6133 138.477 96.3433 138.283 95.99C138.097 95.63 138.003 95.2033 138.003 94.71V91.46H139.403V94.51C139.403 94.95 139.513 95.29 139.733 95.53C139.953 95.7633 140.253 95.88 140.633 95.88C141.02 95.88 141.323 95.7633 141.543 95.53C141.763 95.29 141.873 94.95 141.873 94.51V91.46H143.283ZM147.735 91.38C148.395 91.38 148.928 91.59 149.335 92.01C149.741 92.4233 149.945 93.0033 149.945 93.75V97H148.545V93.94C148.545 93.5 148.435 93.1633 148.215 92.93C147.995 92.69 147.695 92.57 147.315 92.57C146.928 92.57 146.621 92.69 146.395 92.93C146.175 93.1633 146.065 93.5 146.065 93.94V97H144.665V91.46H146.065V92.15C146.251 91.91 146.488 91.7233 146.775 91.59C147.068 91.45 147.388 91.38 147.735 91.38ZM153.396 97.09C152.943 97.09 152.536 97.01 152.176 96.85C151.816 96.6833 151.529 96.46 151.316 96.18C151.109 95.9 150.996 95.59 150.976 95.25H152.386C152.413 95.4633 152.516 95.64 152.696 95.78C152.883 95.92 153.113 95.99 153.386 95.99C153.653 95.99 153.859 95.9367 154.006 95.83C154.159 95.7233 154.236 95.5867 154.236 95.42C154.236 95.24 154.143 95.1067 153.956 95.02C153.776 94.9267 153.486 94.8267 153.086 94.72C152.673 94.62 152.333 94.5167 152.066 94.41C151.806 94.3033 151.579 94.14 151.386 93.92C151.199 93.7 151.106 93.4033 151.106 93.03C151.106 92.7233 151.193 92.4433 151.366 92.19C151.546 91.9367 151.799 91.7367 152.126 91.59C152.459 91.4433 152.849 91.37 153.296 91.37C153.956 91.37 154.483 91.5367 154.876 91.87C155.269 92.1967 155.486 92.64 155.526 93.2H154.186C154.166 92.98 154.073 92.8067 153.906 92.68C153.746 92.5467 153.529 92.48 153.256 92.48C153.003 92.48 152.806 92.5267 152.666 92.62C152.533 92.7133 152.466 92.8433 152.466 93.01C152.466 93.1967 152.559 93.34 152.746 93.44C152.933 93.5333 153.223 93.63 153.616 93.73C154.016 93.83 154.346 93.9333 154.606 94.04C154.866 94.1467 155.089 94.3133 155.276 94.54C155.469 94.76 155.569 95.0533 155.576 95.42C155.576 95.74 155.486 96.0267 155.306 96.28C155.133 96.5333 154.879 96.7333 154.546 96.88C154.219 97.02 153.836 97.09 153.396 97.09ZM161.955 91.46V97H160.545V96.3C160.365 96.54 160.128 96.73 159.835 96.87C159.548 97.0033 159.235 97.07 158.895 97.07C158.462 97.07 158.078 96.98 157.745 96.8C157.412 96.6133 157.148 96.3433 156.955 95.99C156.768 95.63 156.675 95.2033 156.675 94.71V91.46H158.075V94.51C158.075 94.95 158.185 95.29 158.405 95.53C158.625 95.7633 158.925 95.88 159.305 95.88C159.692 95.88 159.995 95.7633 160.215 95.53C160.435 95.29 160.545 94.95 160.545 94.51V91.46H161.955ZM164.736 92.27C164.916 92.0033 165.163 91.7867 165.476 91.62C165.796 91.4533 166.16 91.37 166.566 91.37C167.04 91.37 167.466 91.4867 167.846 91.72C168.233 91.9533 168.536 92.2867 168.756 92.72C168.983 93.1467 169.096 93.6433 169.096 94.21C169.096 94.7767 168.983 95.28 168.756 95.72C168.536 96.1533 168.233 96.49 167.846 96.73C167.466 96.97 167.04 97.09 166.566 97.09C166.153 97.09 165.79 97.01 165.476 96.85C165.17 96.6833 164.923 96.47 164.736 96.21V97H163.336V89.6H164.736V92.27ZM167.666 94.21C167.666 93.8767 167.596 93.59 167.456 93.35C167.323 93.1033 167.143 92.9167 166.916 92.79C166.696 92.6633 166.456 92.6 166.196 92.6C165.943 92.6 165.703 92.6667 165.476 92.8C165.256 92.9267 165.076 93.1133 164.936 93.36C164.803 93.6067 164.736 93.8967 164.736 94.23C164.736 94.5633 164.803 94.8533 164.936 95.1C165.076 95.3467 165.256 95.5367 165.476 95.67C165.703 95.7967 165.943 95.86 166.196 95.86C166.456 95.86 166.696 95.7933 166.916 95.66C167.143 95.5267 167.323 95.3367 167.456 95.09C167.596 94.8433 167.666 94.55 167.666 94.21ZM172.234 97.09C171.78 97.09 171.374 97.01 171.014 96.85C170.654 96.6833 170.367 96.46 170.154 96.18C169.947 95.9 169.834 95.59 169.814 95.25H171.224C171.25 95.4633 171.354 95.64 171.534 95.78C171.72 95.92 171.95 95.99 172.224 95.99C172.49 95.99 172.697 95.9367 172.844 95.83C172.997 95.7233 173.074 95.5867 173.074 95.42C173.074 95.24 172.98 95.1067 172.794 95.02C172.614 94.9267 172.324 94.8267 171.924 94.72C171.51 94.62 171.17 94.5167 170.904 94.41C170.644 94.3033 170.417 94.14 170.224 93.92C170.037 93.7 169.944 93.4033 169.944 93.03C169.944 92.7233 170.03 92.4433 170.204 92.19C170.384 91.9367 170.637 91.7367 170.964 91.59C171.297 91.4433 171.687 91.37 172.134 91.37C172.794 91.37 173.32 91.5367 173.714 91.87C174.107 92.1967 174.324 92.64 174.364 93.2H173.024C173.004 92.98 172.91 92.8067 172.744 92.68C172.584 92.5467 172.367 92.48 172.094 92.48C171.84 92.48 171.644 92.5267 171.504 92.62C171.37 92.7133 171.304 92.8433 171.304 93.01C171.304 93.1967 171.397 93.34 171.584 93.44C171.77 93.5333 172.06 93.63 172.454 93.73C172.854 93.83 173.184 93.9333 173.444 94.04C173.704 94.1467 173.927 94.3133 174.114 94.54C174.307 94.76 174.407 95.0533 174.414 95.42C174.414 95.74 174.324 96.0267 174.144 96.28C173.97 96.5333 173.717 96.7333 173.384 96.88C173.057 97.02 172.674 97.09 172.234 97.09ZM175.203 94.23C175.203 93.6567 175.32 93.1567 175.553 92.73C175.786 92.2967 176.11 91.9633 176.523 91.73C176.936 91.49 177.41 91.37 177.943 91.37C178.63 91.37 179.196 91.5433 179.643 91.89C180.096 92.23 180.4 92.71 180.553 93.33H179.043C178.963 93.09 178.826 92.9033 178.633 92.77C178.446 92.63 178.213 92.56 177.933 92.56C177.533 92.56 177.216 92.7067 176.983 93C176.75 93.2867 176.633 93.6967 176.633 94.23C176.633 94.7567 176.75 95.1667 176.983 95.46C177.216 95.7467 177.533 95.89 177.933 95.89C178.5 95.89 178.87 95.6367 179.043 95.13H180.553C180.4 95.73 180.096 96.2067 179.643 96.56C179.19 96.9133 178.623 97.09 177.943 97.09C177.41 97.09 176.936 96.9733 176.523 96.74C176.11 96.5 175.786 96.1667 175.553 95.74C175.32 95.3067 175.203 94.8033 175.203 94.23ZM182.979 92.32C183.159 92.0267 183.392 91.7967 183.679 91.63C183.972 91.4633 184.305 91.38 184.679 91.38V92.85H184.309C183.869 92.85 183.535 92.9533 183.309 93.16C183.089 93.3667 182.979 93.7267 182.979 94.24V97H181.579V91.46H182.979V92.32ZM186.332 90.8C186.085 90.8 185.878 90.7233 185.712 90.57C185.552 90.41 185.472 90.2133 185.472 89.98C185.472 89.7467 185.552 89.5533 185.712 89.4C185.878 89.24 186.085 89.16 186.332 89.16C186.578 89.16 186.782 89.24 186.942 89.4C187.108 89.5533 187.192 89.7467 187.192 89.98C187.192 90.2133 187.108 90.41 186.942 90.57C186.782 90.7233 186.578 90.8 186.332 90.8ZM187.022 91.46V97H185.622V91.46H187.022ZM189.805 92.27C189.985 92.0033 190.232 91.7867 190.545 91.62C190.865 91.4533 191.228 91.37 191.635 91.37C192.108 91.37 192.535 91.4867 192.915 91.72C193.302 91.9533 193.605 92.2867 193.825 92.72C194.052 93.1467 194.165 93.6433 194.165 94.21C194.165 94.7767 194.052 95.28 193.825 95.72C193.605 96.1533 193.302 96.49 192.915 96.73C192.535 96.97 192.108 97.09 191.635 97.09C191.222 97.09 190.858 97.01 190.545 96.85C190.238 96.6833 189.992 96.47 189.805 96.21V97H188.405V89.6H189.805V92.27ZM192.735 94.21C192.735 93.8767 192.665 93.59 192.525 93.35C192.392 93.1033 192.212 92.9167 191.985 92.79C191.765 92.6633 191.525 92.6 191.265 92.6C191.012 92.6 190.772 92.6667 190.545 92.8C190.325 92.9267 190.145 93.1133 190.005 93.36C189.872 93.6067 189.805 93.8967 189.805 94.23C189.805 94.5633 189.872 94.8533 190.005 95.1C190.145 95.3467 190.325 95.5367 190.545 95.67C190.772 95.7967 191.012 95.86 191.265 95.86C191.525 95.86 191.765 95.7933 191.985 95.66C192.212 95.5267 192.392 95.3367 192.525 95.09C192.665 94.8433 192.735 94.55 192.735 94.21ZM200.332 94.11C200.332 94.31 200.319 94.49 200.292 94.65H196.242C196.276 95.05 196.416 95.3633 196.662 95.59C196.909 95.8167 197.212 95.93 197.572 95.93C198.092 95.93 198.462 95.7067 198.682 95.26H200.192C200.032 95.7933 199.726 96.2333 199.272 96.58C198.819 96.92 198.262 97.09 197.602 97.09C197.069 97.09 196.589 96.9733 196.162 96.74C195.742 96.5 195.412 96.1633 195.172 95.73C194.939 95.2967 194.822 94.7967 194.822 94.23C194.822 93.6567 194.939 93.1533 195.172 92.72C195.406 92.2867 195.732 91.9533 196.152 91.72C196.572 91.4867 197.056 91.37 197.602 91.37C198.129 91.37 198.599 91.4833 199.012 91.71C199.432 91.9367 199.756 92.26 199.982 92.68C200.216 93.0933 200.332 93.57 200.332 94.11ZM198.882 93.71C198.876 93.35 198.746 93.0633 198.492 92.85C198.239 92.63 197.929 92.52 197.562 92.52C197.216 92.52 196.922 92.6267 196.682 92.84C196.449 93.0467 196.306 93.3367 196.252 93.71H198.882ZM203.477 94.24C203.477 93.68 203.59 93.19 203.817 92.77C204.044 92.3433 204.354 92.0133 204.747 91.78C205.147 91.5467 205.59 91.43 206.077 91.43C206.557 91.43 206.974 91.5333 207.327 91.74C207.68 91.9467 207.944 92.2067 208.117 92.52V91.52H209.037V97H208.117V95.98C207.937 96.3 207.667 96.5667 207.307 96.78C206.954 96.9867 206.54 97.09 206.067 97.09C205.58 97.09 205.14 96.97 204.747 96.73C204.354 96.49 204.044 96.1533 203.817 95.72C203.59 95.2867 203.477 94.7933 203.477 94.24ZM208.117 94.25C208.117 93.8367 208.034 93.4767 207.867 93.17C207.7 92.8633 207.474 92.63 207.187 92.47C206.907 92.3033 206.597 92.22 206.257 92.22C205.917 92.22 205.607 92.3 205.327 92.46C205.047 92.62 204.824 92.8533 204.657 93.16C204.49 93.4667 204.407 93.8267 204.407 94.24C204.407 94.66 204.49 95.0267 204.657 95.34C204.824 95.6467 205.047 95.8833 205.327 96.05C205.607 96.21 205.917 96.29 206.257 96.29C206.597 96.29 206.907 96.21 207.187 96.05C207.474 95.8833 207.7 95.6467 207.867 95.34C208.034 95.0267 208.117 94.6633 208.117 94.25ZM213.245 91.42C213.911 91.42 214.451 91.6233 214.865 92.03C215.278 92.43 215.485 93.01 215.485 93.77V97H214.585V93.9C214.585 93.3533 214.448 92.9367 214.175 92.65C213.901 92.3567 213.528 92.21 213.055 92.21C212.575 92.21 212.191 92.36 211.905 92.66C211.625 92.96 211.485 93.3967 211.485 93.97V97H210.575V91.52H211.485V92.3C211.665 92.02 211.908 91.8033 212.215 91.65C212.528 91.4967 212.871 91.42 213.245 91.42ZM221.691 91.52L218.391 99.58H217.451L218.531 96.94L216.321 91.52H217.331L219.051 95.96L220.751 91.52H221.691ZM223.716 92.27V95.5C223.716 95.7667 223.773 95.9567 223.886 96.07C223.999 96.1767 224.196 96.23 224.476 96.23H225.146V97H224.326C223.819 97 223.439 96.8833 223.186 96.65C222.933 96.4167 222.806 96.0333 222.806 95.5V92.27H222.096V91.52H222.806V90.14H223.716V91.52H225.146V92.27H223.716ZM226.719 90.63C226.545 90.63 226.399 90.57 226.279 90.45C226.159 90.33 226.099 90.1833 226.099 90.01C226.099 89.8367 226.159 89.69 226.279 89.57C226.399 89.45 226.545 89.39 226.719 89.39C226.885 89.39 227.025 89.45 227.139 89.57C227.259 89.69 227.319 89.8367 227.319 90.01C227.319 90.1833 227.259 90.33 227.139 90.45C227.025 90.57 226.885 90.63 226.719 90.63ZM227.159 91.52V97H226.249V91.52H227.159ZM235.299 91.42C235.726 91.42 236.106 91.51 236.439 91.69C236.773 91.8633 237.036 92.1267 237.229 92.48C237.423 92.8333 237.519 93.2633 237.519 93.77V97H236.619V93.9C236.619 93.3533 236.483 92.9367 236.209 92.65C235.943 92.3567 235.579 92.21 235.119 92.21C234.646 92.21 234.269 92.3633 233.989 92.67C233.709 92.97 233.569 93.4067 233.569 93.98V97H232.669V93.9C232.669 93.3533 232.533 92.9367 232.259 92.65C231.993 92.3567 231.629 92.21 231.169 92.21C230.696 92.21 230.319 92.3633 230.039 92.67C229.759 92.97 229.619 93.4067 229.619 93.98V97H228.709V91.52H229.619V92.31C229.799 92.0233 230.039 91.8033 230.339 91.65C230.646 91.4967 230.983 91.42 231.349 91.42C231.809 91.42 232.216 91.5233 232.569 91.73C232.923 91.9367 233.186 92.24 233.359 92.64C233.513 92.2533 233.766 91.9533 234.119 91.74C234.473 91.5267 234.866 91.42 235.299 91.42ZM244.012 94.05C244.012 94.2233 244.002 94.4067 243.982 94.6H239.602C239.636 95.14 239.819 95.5633 240.152 95.87C240.492 96.17 240.902 96.32 241.382 96.32C241.776 96.32 242.102 96.23 242.362 96.05C242.629 95.8633 242.816 95.6167 242.922 95.31H243.902C243.756 95.8367 243.462 96.2667 243.022 96.6C242.582 96.9267 242.036 97.09 241.382 97.09C240.862 97.09 240.396 96.9733 239.982 96.74C239.576 96.5067 239.256 96.1767 239.022 95.75C238.789 95.3167 238.672 94.8167 238.672 94.25C238.672 93.6833 238.786 93.1867 239.012 92.76C239.239 92.3333 239.556 92.0067 239.962 91.78C240.376 91.5467 240.849 91.43 241.382 91.43C241.902 91.43 242.362 91.5433 242.762 91.77C243.162 91.9967 243.469 92.31 243.682 92.71C243.902 93.1033 244.012 93.55 244.012 94.05ZM243.072 93.86C243.072 93.5133 242.996 93.2167 242.842 92.97C242.689 92.7167 242.479 92.5267 242.212 92.4C241.952 92.2667 241.662 92.2 241.342 92.2C240.882 92.2 240.489 92.3467 240.162 92.64C239.842 92.9333 239.659 93.34 239.612 93.86H243.072ZM245.503 97.06C245.33 97.06 245.183 97 245.063 96.88C244.943 96.76 244.883 96.6133 244.883 96.44C244.883 96.2667 244.943 96.12 245.063 96C245.183 95.88 245.33 95.82 245.503 95.82C245.67 95.82 245.81 95.88 245.923 96C246.043 96.12 246.103 96.2667 246.103 96.44C246.103 96.6133 246.043 96.76 245.923 96.88C245.81 97 245.67 97.06 245.503 97.06Z" fill="white"/>
<path d="M137.363 98H203.044V98.5H137.363V98Z" fill="white"/>
</svg>
