<svg width="600" height="64" viewBox="0 0 600 64" fill="none" xmlns="http://www.w3.org/2000/svg">
<rect width="600" height="64" fill="white"/>
<path d="M79.823 35.2559L77.0626 30.3834H75.8796V35.2559H73.3701V22.7524H78.0664C79.0344 22.7524 79.8589 22.9255 80.54 23.2718C81.2212 23.6062 81.7291 24.066 82.0636 24.6512C82.4102 25.2244 82.5835 25.8693 82.5835 26.5858C82.5835 27.4098 82.3445 28.1562 81.8665 28.825C81.3885 29.4818 80.6775 29.9356 79.7334 30.1864L82.7269 35.2559H79.823ZM75.8796 28.5025H77.9768C78.6579 28.5025 79.1658 28.3413 79.5004 28.0189C79.835 27.6845 80.0023 27.2247 80.0023 26.6396C80.0023 26.0663 79.835 25.6245 79.5004 25.314C79.1658 24.9915 78.6579 24.8303 77.9768 24.8303H75.8796V28.5025Z" fill="black"/>
<path d="M94.0845 30.0789C94.0845 30.4372 94.0606 30.7596 94.0128 31.0462H86.7532C86.813 31.7628 87.0639 32.324 87.5061 32.7301C87.9482 33.1361 88.4919 33.3391 89.1372 33.3391C90.0693 33.3391 90.7325 32.9391 91.1269 32.1389H93.8335C93.5467 33.0943 92.997 33.8825 92.1844 34.5035C91.3719 35.1126 90.374 35.4171 89.191 35.4171C88.235 35.4171 87.3746 35.2081 86.6098 34.7901C85.857 34.3602 85.2655 33.7571 84.8353 32.9809C84.417 32.2046 84.2079 31.309 84.2079 30.2939C84.2079 29.2668 84.417 28.3652 84.8353 27.589C85.2535 26.8127 85.8391 26.2156 86.5919 25.7976C87.3447 25.3796 88.2111 25.1707 89.191 25.1707C90.135 25.1707 90.9775 25.3737 91.7184 25.7797C92.4712 26.1857 93.0508 26.7649 93.4571 27.5173C93.8753 28.2577 94.0845 29.1116 94.0845 30.0789ZM91.4854 29.3624C91.4734 28.7175 91.2404 28.204 90.7863 27.8218C90.3322 27.4277 89.7765 27.2307 89.1193 27.2307C88.4979 27.2307 87.9721 27.4218 87.5419 27.8039C87.1237 28.1741 86.8668 28.6936 86.7712 29.3624H91.4854Z" fill="black"/>
<path d="M95.2709 30.258C95.2709 29.2549 95.468 28.3652 95.8624 27.589C96.2687 26.8127 96.8124 26.2156 97.4935 25.7976C98.1866 25.3796 98.9574 25.1707 99.8059 25.1707C100.547 25.1707 101.192 25.3199 101.742 25.6185C102.303 25.917 102.751 26.2932 103.086 26.747V25.3319H105.613V35.2559H103.086V33.8049C102.763 34.2706 102.315 34.6588 101.742 34.9693C101.18 35.2678 100.529 35.4171 99.7879 35.4171C98.9514 35.4171 98.1866 35.2021 97.4935 34.7722C96.8124 34.3423 96.2687 33.7392 95.8624 32.963C95.468 32.1748 95.2709 31.2731 95.2709 30.258ZM103.086 30.2939C103.086 29.6848 102.967 29.1653 102.728 28.7354C102.489 28.2936 102.166 27.9592 101.76 27.7323C101.353 27.4934 100.917 27.374 100.451 27.374C99.9851 27.374 99.5549 27.4875 99.1606 27.7144C98.7662 27.9413 98.4436 28.2756 98.1926 28.7175C97.9536 29.1474 97.8341 29.6609 97.8341 30.258C97.8341 30.8552 97.9536 31.3806 98.1926 31.8344C98.4436 32.2763 98.7662 32.6166 99.1606 32.8555C99.5669 33.0943 99.997 33.2137 100.451 33.2137C100.917 33.2137 101.353 33.1003 101.76 32.8734C102.166 32.6345 102.489 32.3002 102.728 31.8702C102.967 31.4284 103.086 30.9029 103.086 30.2939Z" fill="black"/>
<path d="M107.419 30.258C107.419 29.2549 107.616 28.3652 108.011 27.589C108.417 26.8127 108.967 26.2156 109.66 25.7976C110.353 25.3796 111.124 25.1707 111.972 25.1707C112.617 25.1707 113.233 25.314 113.818 25.6006C114.404 25.8753 114.87 26.2455 115.216 26.7112V22H117.762V35.2559H115.216V33.787C114.906 34.2766 114.47 34.6707 113.908 34.9693C113.346 35.2678 112.695 35.4171 111.954 35.4171C111.118 35.4171 110.353 35.2021 109.66 34.7722C108.967 34.3423 108.417 33.7392 108.011 32.963C107.616 32.1748 107.419 31.2731 107.419 30.258ZM115.234 30.2939C115.234 29.6848 115.115 29.1653 114.876 28.7354C114.637 28.2936 114.314 27.9592 113.908 27.7323C113.502 27.4934 113.065 27.374 112.599 27.374C112.133 27.374 111.703 27.4875 111.309 27.7144C110.914 27.9413 110.592 28.2756 110.341 28.7175C110.102 29.1474 109.982 29.6609 109.982 30.258C109.982 30.8552 110.102 31.3806 110.341 31.8344C110.592 32.2763 110.914 32.6166 111.309 32.8555C111.715 33.0943 112.145 33.2137 112.599 33.2137C113.065 33.2137 113.502 33.1003 113.908 32.8734C114.314 32.6345 114.637 32.3002 114.876 31.8702C115.115 31.4284 115.234 30.9029 115.234 30.2939Z" fill="black"/>
<path d="M129.713 25.3319L123.565 39.9492H120.894L123.045 35.0051L119.065 25.3319H121.88L124.443 32.2643L127.042 25.3319H129.713Z" fill="black"/>
<path d="M139.657 35.3813C138.784 35.3813 137.996 35.232 137.291 34.9334C136.597 34.6349 136.048 34.2049 135.641 33.6437C135.235 33.0824 135.026 32.4196 135.014 31.6553H137.703C137.739 32.1688 137.918 32.5748 138.241 32.8734C138.575 33.1719 139.029 33.3212 139.603 33.3212C140.188 33.3212 140.648 33.1839 140.983 32.9092C141.318 32.6226 141.485 32.2524 141.485 31.7986C141.485 31.4284 141.371 31.1239 141.144 30.885C140.917 30.6462 140.631 30.4611 140.284 30.3297C139.949 30.1864 139.483 30.0311 138.886 29.864C138.073 29.6251 137.41 29.3922 136.896 29.1653C136.394 28.9265 135.958 28.5742 135.588 28.1084C135.229 27.6308 135.05 26.9978 135.05 26.2096C135.05 25.4692 135.235 24.8243 135.606 24.275C135.976 23.7257 136.496 23.3077 137.165 23.0211C137.834 22.7225 138.599 22.5732 139.459 22.5732C140.75 22.5732 141.796 22.8897 142.596 23.5226C143.409 24.1436 143.857 25.0154 143.941 26.138H141.18C141.156 25.7081 140.971 25.3558 140.625 25.0811C140.29 24.7945 139.842 24.6512 139.28 24.6512C138.79 24.6512 138.396 24.7766 138.097 25.0274C137.81 25.2781 137.667 25.6424 137.667 26.1201C137.667 26.4544 137.775 26.7351 137.99 26.962C138.217 27.177 138.492 27.3561 138.814 27.4994C139.149 27.6308 139.615 27.786 140.212 27.9651C141.025 28.204 141.688 28.4428 142.202 28.6817C142.716 28.9205 143.158 29.2788 143.528 29.7565C143.899 30.2342 144.084 30.8611 144.084 31.6374C144.084 32.3061 143.911 32.9271 143.564 33.5004C143.218 34.0736 142.71 34.5334 142.041 34.8797C141.371 35.2141 140.577 35.3813 139.657 35.3813Z" fill="black"/>
<path d="M155.491 30.0789C155.491 30.4372 155.467 30.7596 155.419 31.0462H148.16C148.219 31.7628 148.47 32.324 148.913 32.7301C149.355 33.1361 149.898 33.3391 150.544 33.3391C151.476 33.3391 152.139 32.9391 152.533 32.1389H155.24C154.953 33.0943 154.404 33.8825 153.591 34.5035C152.778 35.1126 151.781 35.4171 150.597 35.4171C149.641 35.4171 148.781 35.2081 148.016 34.7901C147.263 34.3602 146.672 33.7571 146.242 32.9809C145.823 32.2046 145.614 31.309 145.614 30.2939C145.614 29.2668 145.823 28.3652 146.242 27.589C146.66 26.8127 147.246 26.2156 147.998 25.7976C148.751 25.3796 149.618 25.1707 150.597 25.1707C151.542 25.1707 152.384 25.3737 153.125 25.7797C153.878 26.1857 154.457 26.7649 154.864 27.5173C155.282 28.2577 155.491 29.1116 155.491 30.0789ZM152.892 29.3624C152.88 28.7175 152.647 28.204 152.193 27.8218C151.739 27.4277 151.183 27.2307 150.526 27.2307C149.904 27.2307 149.379 27.4218 148.948 27.8039C148.53 28.1741 148.273 28.6936 148.178 29.3624H152.892Z" fill="black"/>
<path d="M160.244 27.3919V32.1927C160.244 32.5271 160.322 32.7719 160.477 32.9271C160.645 33.0704 160.92 33.1421 161.302 33.1421H162.467V35.2559H160.89C158.775 35.2559 157.717 34.2288 157.717 32.1748V27.3919H156.534V25.3319H157.717V22.8778H160.244V25.3319H162.467V27.3919H160.244Z" fill="black"/>
<path d="M177.255 26.5142C176.968 25.9887 176.573 25.5886 176.072 25.314C175.57 25.0393 174.984 24.902 174.315 24.902C173.574 24.902 172.917 25.0692 172.343 25.4035C171.77 25.7379 171.321 26.2156 170.999 26.8366C170.676 27.4576 170.515 28.1741 170.515 28.9862C170.515 29.8222 170.676 30.5506 170.999 31.1716C171.333 31.7926 171.794 32.2703 172.379 32.6047C172.965 32.9391 173.646 33.1063 174.422 33.1063C175.378 33.1063 176.161 32.8555 176.771 32.3539C177.38 31.8404 177.78 31.1298 177.972 30.2222H173.67V28.3055H180.445V30.4909C180.278 31.3627 179.919 32.1688 179.37 32.9092C178.82 33.6496 178.109 34.2467 177.237 34.7006C176.376 35.1424 175.408 35.3633 174.333 35.3633C173.126 35.3633 172.033 35.0946 171.053 34.5572C170.085 34.0079 169.32 33.2496 168.758 32.2823C168.209 31.3149 167.934 30.2162 167.934 28.9862C167.934 27.7562 168.209 26.6575 168.758 25.6901C169.32 24.7109 170.085 23.9526 171.053 23.4152C172.033 22.8658 173.12 22.5911 174.315 22.5911C175.725 22.5911 176.95 22.9375 177.99 23.6301C179.029 24.3108 179.746 25.2722 180.14 26.5142H177.255Z" fill="black"/>
<path d="M184.811 26.8724C185.134 26.347 185.552 25.935 186.066 25.6364C186.592 25.3379 187.189 25.1886 187.859 25.1886V27.8218H187.195C186.407 27.8218 185.809 28.0069 185.403 28.3771C185.008 28.7474 184.811 29.3922 184.811 30.3118V35.2559H182.302V25.3319H184.811V26.8724Z" fill="black"/>
<path d="M193.958 35.4171C193.002 35.4171 192.142 35.2081 191.377 34.7901C190.612 34.3602 190.009 33.7571 189.567 32.9809C189.137 32.2046 188.921 31.309 188.921 30.2939C188.921 29.2788 189.142 28.3831 189.585 27.6069C190.039 26.8306 190.654 26.2335 191.431 25.8155C192.208 25.3856 193.074 25.1707 194.03 25.1707C194.986 25.1707 195.852 25.3856 196.629 25.8155C197.406 26.2335 198.015 26.8306 198.457 27.6069C198.912 28.3831 199.139 29.2788 199.139 30.2939C199.139 31.309 198.906 32.2046 198.439 32.9809C197.985 33.7571 197.364 34.3602 196.575 34.7901C195.799 35.2081 194.926 35.4171 193.958 35.4171ZM193.958 33.2317C194.412 33.2317 194.837 33.1242 195.231 32.9092C195.637 32.6823 195.96 32.3479 196.199 31.9061C196.438 31.4642 196.557 30.9268 196.557 30.2939C196.557 29.3504 196.306 28.6279 195.805 28.1264C195.315 27.6128 194.711 27.3561 193.994 27.3561C193.277 27.3561 192.674 27.6128 192.184 28.1264C191.706 28.6279 191.467 29.3504 191.467 30.2939C191.467 31.2373 191.7 31.9658 192.166 32.4793C192.644 32.9809 193.241 33.2317 193.958 33.2317Z" fill="black"/>
<path d="M214.746 25.3319L211.842 35.2559H209.135L207.325 28.3234L205.514 35.2559H202.79L199.868 25.3319H202.413L204.17 32.8913L206.07 25.3319H208.723L210.587 32.8734L212.344 25.3319H214.746Z" fill="black"/>
<path d="M206.457 43.9951C206.177 44.0321 205.922 44.0321 205.642 44.0876L205.642 44.106C205.515 44.0321 205.362 43.9951 205.183 43.9766C204.725 43.9397 204.241 43.9027 203.782 43.8657C203.731 43.8657 203.706 43.8842 203.731 43.9212C203.731 43.9397 203.757 43.9581 203.757 43.9581C204.011 44.0321 204.292 44.106 204.572 44.1615C204.648 44.18 204.725 44.1985 204.801 44.1985C205.285 44.1615 205.769 44.3094 206.254 44.3464C206.356 44.3464 206.457 44.3834 206.559 44.3834C207.094 44.3649 207.604 44.4573 208.139 44.5313C208.292 44.5498 208.419 44.5682 208.572 44.5682C209.031 44.5498 209.464 44.6237 209.897 44.7161C209.897 44.7161 209.923 44.7346 209.923 44.7531C209.642 44.8086 209.362 44.7716 209.082 44.7346C208.521 44.6422 207.961 44.6237 207.375 44.6052C207.222 44.6052 207.094 44.6052 206.942 44.5867C206.483 44.4943 206.024 44.4758 205.54 44.4573C205.489 44.4573 205.464 44.4758 205.464 44.4943C205.464 44.5128 205.489 44.5313 205.489 44.5313C205.795 44.6237 206.101 44.6977 206.432 44.6792C206.61 44.6792 206.789 44.6792 206.993 44.6792C207.196 44.6792 207.4 44.7161 207.528 44.8456C207.655 44.975 207.782 44.975 207.935 44.938C208.139 44.8825 208.343 44.8825 208.521 44.8456C208.674 44.8271 208.853 44.8271 209.005 44.8825C209.158 44.938 209.311 44.938 209.49 44.938C209.566 44.938 209.642 44.9565 209.693 45.0119C209.719 45.0489 209.77 45.0859 209.795 45.1044C210.05 45.1968 210.305 45.2893 210.611 45.2893C210.84 45.2893 211.044 45.3262 211.273 45.3632C211.655 45.4187 212.038 45.4741 212.42 45.4926C212.726 45.5111 213.031 45.5666 213.312 45.6035C213.439 45.622 213.541 45.6405 213.668 45.6405C214.407 45.659 215.121 45.8254 215.834 45.8624C215.86 45.8624 215.885 45.9178 215.885 45.9363C215.885 45.9548 215.834 45.9733 215.809 45.9918C215.783 45.9918 215.732 46.0103 215.681 45.9918C215.452 45.9733 215.223 45.9733 215.019 45.9548C214.535 45.9178 214.051 45.8624 213.566 45.8254C213.108 45.7884 212.624 45.7514 212.165 45.696C211.885 45.6775 211.604 45.659 211.324 45.6405C211.222 45.6405 211.12 45.6405 211.018 45.6035C210.713 45.5296 210.381 45.5296 210.05 45.5296C209.388 45.5296 208.751 45.4741 208.088 45.4372C207.986 45.4372 207.884 45.4187 207.782 45.4187C207.579 45.4187 207.375 45.4002 207.171 45.3632C206.916 45.3077 206.661 45.2893 206.381 45.2708C205.948 45.2523 205.54 45.2338 205.107 45.1968C204.699 45.1598 204.292 45.1044 203.909 45.0674C203.553 45.0304 203.17 45.0119 202.814 44.9935C202.483 44.975 202.177 44.9565 201.846 44.9195C201.54 44.8825 201.234 44.864 200.928 44.8456C199.96 44.7716 198.992 44.7161 197.998 44.6422C197.565 44.6052 197.157 44.5682 196.724 44.5313C196.112 44.4943 195.501 44.4573 194.889 44.4018C194.125 44.3464 193.361 44.2909 192.571 44.2724C192.112 44.2724 191.679 44.217 191.246 44.1615C191.016 44.143 190.813 44.1245 190.583 44.106C190.15 44.0876 189.742 44.0691 189.309 44.0321C189.156 44.0321 189.029 44.0136 188.876 44.0136C188.519 44.0321 188.137 43.9951 187.78 43.9581C187.449 43.9212 187.143 43.9212 186.812 43.9027C186.252 43.8842 185.666 43.8472 185.105 43.8287C184.952 43.8287 184.774 43.8287 184.621 43.8102C184.086 43.7548 183.525 43.7363 182.965 43.7363C182.786 43.7363 182.608 43.7178 182.404 43.7178C181.869 43.6808 181.359 43.6439 180.824 43.6439C180.646 43.6439 180.468 43.6439 180.264 43.6254C179.78 43.5699 179.296 43.5884 178.811 43.5699C178.353 43.5514 177.92 43.5329 177.461 43.5144C177.13 43.496 176.798 43.496 176.493 43.4775C176.034 43.459 175.601 43.4405 175.142 43.422C175.015 43.422 174.887 43.4035 174.785 43.4035C174.148 43.4405 173.511 43.385 172.9 43.385C172.543 43.385 172.161 43.3481 171.804 43.3481C171.142 43.3296 170.454 43.3111 169.791 43.2926C169.333 43.2741 168.9 43.2741 168.441 43.2556C168.186 43.2371 167.906 43.2371 167.651 43.2556C167.524 43.2741 167.396 43.2741 167.294 43.2556C167.04 43.2186 166.759 43.2186 166.504 43.2186C165.944 43.2002 165.358 43.1817 164.797 43.1817C164.695 43.1817 164.593 43.1632 164.491 43.1632C163.982 43.2002 163.472 43.1632 162.963 43.1632C162.377 43.1632 161.791 43.1817 161.179 43.1817C160.797 43.1817 160.415 43.1632 160.007 43.1632C159.854 43.1632 159.676 43.1447 159.523 43.1632C159.166 43.2002 158.835 43.1817 158.478 43.1632C158.019 43.1447 157.586 43.1077 157.128 43.1632C157.077 43.1632 157 43.1632 156.949 43.1632C156.083 43.1077 155.191 43.1632 154.325 43.1447C153.509 43.1262 152.694 43.1262 151.879 43.1262C151.318 43.1262 150.732 43.1632 150.172 43.1262C149.127 43.1632 148.082 43.1262 147.063 43.1817C146.4 43.2186 145.713 43.2002 145.05 43.2002C144.795 43.2002 144.515 43.2002 144.26 43.2002C143.598 43.2002 142.91 43.2186 142.247 43.2371C141.738 43.2371 141.228 43.2371 140.718 43.2556C139.801 43.2926 138.884 43.2926 137.967 43.2926C137.712 43.2926 137.431 43.2926 137.177 43.3111C136.285 43.3296 135.393 43.3481 134.476 43.3296C134.323 43.3296 134.144 43.3296 133.992 43.3481C133.151 43.4035 132.284 43.4035 131.418 43.422C130.756 43.4405 130.119 43.4405 129.456 43.459C129.176 43.459 128.896 43.4775 128.615 43.385C128.539 43.3665 128.437 43.3665 128.386 43.385C128.08 43.496 127.749 43.496 127.418 43.496C126.653 43.5144 125.914 43.5144 125.15 43.5329C124.768 43.5329 124.386 43.5514 124.003 43.5699C123.876 43.5699 123.749 43.5699 123.647 43.5884C123.392 43.5884 123.213 43.5329 123.188 43.3296C123.188 43.3296 123.112 43.3111 123.086 43.3111C123.061 43.3111 123.061 43.3296 123.035 43.3481C122.984 43.5514 122.806 43.6069 122.551 43.6069C121.99 43.6069 121.455 43.6254 120.895 43.6439C119.723 43.6808 118.576 43.7178 117.404 43.7178C117.047 43.7178 116.665 43.7548 116.308 43.7548C115.518 43.7733 114.729 43.7918 113.913 43.8102C113.786 43.8102 113.658 43.8102 113.556 43.8287C112.843 43.8842 112.13 43.8842 111.416 43.8842C110.575 43.9027 109.734 43.9397 108.919 43.9581C108.639 43.9581 108.358 43.9766 108.053 43.9766C107.186 43.9951 106.295 44.0136 105.428 44.0506C105.173 44.0506 104.893 44.0876 104.638 44.106C104.001 44.143 103.364 44.106 102.753 44.1245C102.498 44.143 102.269 44.143 102.014 44.106C101.912 44.0876 101.81 44.0876 101.708 44.106C101.097 44.1615 100.485 44.106 99.8736 44.1245C99.2875 44.143 98.7015 44.1245 98.0899 44.143C97.5039 44.143 96.9179 44.1615 96.3063 44.18C96.128 44.18 95.9241 44.18 95.7712 44.217C95.5419 44.2539 95.3381 44.3094 95.1088 44.2724C94.8794 44.2539 94.6756 44.2909 94.4463 44.2355C94.3444 44.1985 94.1915 44.217 94.0895 44.2355C93.478 44.3279 92.841 44.3094 92.204 44.3094C91.4396 44.3094 90.7007 44.3094 89.9363 44.3094C89.4267 44.3094 88.9171 44.3094 88.4075 44.3094C87.6685 44.2909 86.9296 44.3279 86.2161 44.2724C86.1397 44.2724 86.0633 44.2724 85.9613 44.2724C85.3498 44.3464 84.7383 44.2724 84.1268 44.2539C83.9739 44.2539 83.7955 44.2355 83.6427 44.2355C83.1076 44.2539 82.5725 44.2355 82.0629 44.2355C81.8845 44.2355 81.7061 44.2355 81.5023 44.2355C81.3239 44.2355 81.1456 44.2355 80.9417 44.2355C80.4831 44.1985 79.999 44.1985 79.5403 44.1985C79.1071 44.18 78.674 44.18 78.2663 44.1615C77.5783 44.143 76.8904 44.106 76.2024 44.0876C75.2851 44.0506 74.3678 44.0321 73.4505 43.9766C72.7116 43.9397 71.9472 43.8657 71.2083 43.8102C70.928 43.7918 70.6477 43.7178 70.3674 43.6808C70.0107 43.6254 69.7304 43.4959 69.4247 43.3665C69.2718 43.3111 69.1699 43.2001 69.1444 43.0892C69.0934 42.9413 69.0425 42.7934 69.017 42.664C68.9915 42.3867 68.966 42.1094 69.1699 41.8505C69.1953 41.7951 69.2208 41.7396 69.2463 41.6842C69.3482 41.4438 69.5266 41.2774 69.8324 41.148C70.0107 41.0741 70.1891 41.0186 70.4184 41.0371C70.6732 41.0371 70.9535 41.0556 71.2083 41.0556C71.3357 41.0556 71.4631 41.0556 71.565 41.0371C71.8453 40.9631 72.1256 40.9816 72.4059 41.0001C72.5587 41.0186 72.7371 41.0186 72.89 41.0186C73.0429 41.0186 73.2212 41.0186 73.3741 40.9631C73.6034 40.8707 73.8327 40.8522 74.0876 40.8707C74.8774 40.8892 75.6673 40.8707 76.4827 40.9077C76.9668 40.9262 77.4509 40.9077 77.9351 40.9262C78.1899 40.9262 78.4702 40.9447 78.725 40.9447C79.0817 40.9447 79.4129 40.9631 79.7697 40.9631C80.5341 40.9816 81.3239 40.9447 82.0883 41.0186C82.1138 41.0186 82.1393 41.0186 82.1393 41.0186C82.2412 41.0186 82.3177 40.9816 82.3431 40.8892C82.3431 40.8152 82.4196 40.7968 82.496 40.7783C82.547 40.7783 82.6234 40.7598 82.6744 40.7783C83.133 40.8152 83.6172 40.8152 84.0758 40.8152C84.509 40.8152 84.9167 40.8707 85.3498 40.8337C85.4518 40.8337 85.5536 40.8337 85.6556 40.8152C85.8849 40.7413 86.1397 40.7598 86.369 40.7968C86.5474 40.8152 86.7258 40.8152 86.9041 40.7968C87.108 40.7783 87.3118 40.7783 87.5157 40.7783C87.6176 40.7783 87.7195 40.7783 87.8214 40.7968C88.1526 40.8892 88.4839 40.8707 88.8406 40.8707C89.3247 40.8522 89.8089 40.8707 90.3185 40.8892C90.3439 40.8892 90.3694 40.8892 90.3694 40.9077C90.3949 40.9447 90.3694 40.9631 90.3185 40.9631C90.2675 40.9816 90.1911 40.9816 90.1401 41.0001C90.1401 41.0001 90.1146 41.0186 90.1146 41.0371C90.1146 41.0556 90.1146 41.0741 90.1401 41.0741C90.1656 41.0926 90.2166 41.111 90.242 41.111C90.4204 41.111 90.5988 41.111 90.7771 41.111C90.8536 41.111 90.93 41.0741 90.9555 41.0186C91.0319 40.8522 91.2103 40.7968 91.4141 40.7783C91.7454 40.7598 92.0511 40.7228 92.3824 40.7598C92.5098 40.7783 92.6372 40.7783 92.7391 40.7598C92.892 40.7413 93.0703 40.7413 93.2232 40.7783C93.2997 40.7968 93.3761 40.7968 93.478 40.7783C93.6564 40.7598 93.8347 40.7413 94.0131 40.7783C94.0895 40.7968 94.166 40.7783 94.2424 40.7598C94.3698 40.7598 94.4972 40.7228 94.5992 40.7413C95.1597 40.7968 95.6948 40.7228 96.2554 40.7413C97.3255 40.7598 98.3702 40.6858 99.4404 40.7228C99.4914 40.7228 99.5678 40.7228 99.6188 40.7228C100.816 40.6489 102.014 40.6673 103.211 40.6304C103.517 40.6304 103.823 40.6119 104.129 40.6304C104.409 40.6489 104.689 40.6304 104.97 40.5934C105.199 40.5749 105.403 40.5564 105.632 40.5564C106.371 40.5379 107.11 40.5194 107.823 40.4825C107.976 40.4825 108.104 40.4825 108.257 40.4825C108.358 40.4825 108.46 40.501 108.562 40.4825C109.123 40.427 109.709 40.4455 110.27 40.4455C110.524 40.4455 110.805 40.4455 111.059 40.427C111.365 40.4085 111.671 40.39 111.977 40.4085C112.053 40.4085 112.13 40.4085 112.231 40.4085C112.537 40.39 112.843 40.3715 113.149 40.3715C113.455 40.3531 113.76 40.3531 114.066 40.2976C114.219 40.2606 114.397 40.2421 114.55 40.2791C114.881 40.3346 115.187 40.2976 115.518 40.2976C115.85 40.2976 116.181 40.2976 116.487 40.2976C117.047 40.2791 117.582 40.2606 118.143 40.2606C118.347 40.2606 118.551 40.2421 118.754 40.2976C118.78 40.2976 118.78 40.3161 118.78 40.3346C118.78 40.3531 118.78 40.3715 118.78 40.3715C118.754 40.39 118.729 40.4085 118.678 40.427C118.474 40.464 118.27 40.464 118.066 40.4455C117.608 40.427 117.124 40.4825 116.665 40.4085C116.385 40.427 116.104 40.464 115.824 40.4825C115.671 40.501 115.518 40.5194 115.391 40.501C115.136 40.4455 114.907 40.4825 114.678 40.5194C114.55 40.5379 114.423 40.5379 114.321 40.5379C113.862 40.5379 113.429 40.5564 112.97 40.5564C112.868 40.5564 112.767 40.5379 112.665 40.5379C112.41 40.5194 112.13 40.5194 111.875 40.5564C111.696 40.5934 111.518 40.5934 111.34 40.5934C110.779 40.5564 110.193 40.6119 109.632 40.6119C109.505 40.6119 109.378 40.6304 109.276 40.6489C108.97 40.7228 108.639 40.7228 108.308 40.7228C108.078 40.7228 107.849 40.7228 107.645 40.7228C107.569 40.7228 107.492 40.7413 107.39 40.7413C107.441 40.7598 107.467 40.7968 107.492 40.7968C107.9 40.7968 108.308 40.7968 108.715 40.7968C108.995 40.7968 109.276 40.7968 109.632 40.8152C109.301 40.9631 109.021 41.0371 108.715 41.0001C108.46 40.9631 108.18 40.9631 107.925 41.0186C107.721 41.0556 107.518 41.0371 107.314 41.0186C107.135 41.0001 106.957 41.0001 106.779 41.0371C106.575 41.0926 106.371 41.0926 106.167 41.0371C105.887 40.9816 105.607 40.9816 105.326 41.0186C105.046 41.0371 104.766 41.0556 104.485 41.0556C104.129 41.0371 103.747 41.0556 103.39 41.0926C102.957 41.1295 102.549 41.1665 102.116 41.111C102.014 41.0926 101.912 41.111 101.81 41.111C101.351 41.148 100.867 41.185 100.409 41.185C100.256 41.185 100.128 41.2035 100.026 41.2959C99.6442 41.2774 99.6442 41.2774 99.4914 41.3329C99.6697 41.3699 99.8481 41.3514 100.001 41.2959C100.103 41.3329 100.23 41.3699 100.358 41.3699C101.071 41.3329 101.785 41.3699 102.498 41.3699C103.186 41.3699 103.874 41.3514 104.562 41.3144C104.817 41.2959 105.046 41.2959 105.301 41.2959C105.556 41.2959 105.785 41.2774 106.04 41.2774C106.346 41.2589 106.651 41.2405 106.957 41.2589C107.135 41.2589 107.314 41.2405 107.518 41.2405C107.772 41.2405 108.002 41.2035 108.257 41.2405C108.358 41.2589 108.46 41.2405 108.562 41.2405C108.945 41.2035 109.327 41.185 109.709 41.2035C109.913 41.2035 110.117 41.2035 110.32 41.2035C110.499 41.2035 110.677 41.2035 110.881 41.2035C111.059 41.2035 111.187 41.2774 111.263 41.3884C111.263 41.4068 111.289 41.4068 111.314 41.4253C111.34 41.4253 111.365 41.4438 111.365 41.4253C111.544 41.3884 111.696 41.3329 111.875 41.2959C111.926 41.2774 111.9 41.2405 111.875 41.222C111.824 41.2035 111.798 41.1665 111.849 41.1665C112.079 41.148 112.308 41.148 112.512 41.148C112.792 41.148 113.072 41.148 113.353 41.111C113.556 41.0926 113.76 41.0926 113.964 41.0926C114.092 41.0926 114.219 41.0741 114.295 41.0186C114.321 41.0001 114.346 40.9631 114.346 40.9447C114.346 40.9262 114.321 40.8892 114.295 40.8707C114.27 40.8522 114.219 40.8522 114.168 40.8522C114.015 40.8522 113.888 40.8522 113.735 40.8707C113.429 40.8892 113.123 40.9447 112.818 40.9447C112.537 40.9631 112.257 40.9447 111.977 40.9262C111.722 40.9077 111.442 40.9077 111.187 40.9447C110.932 40.9816 110.652 40.9631 110.397 40.9447C110.371 40.9447 110.346 40.9262 110.346 40.9077C110.371 40.8892 110.371 40.8522 110.397 40.8522C110.499 40.8337 110.601 40.8152 110.703 40.8152C111.212 40.7968 111.722 40.7968 112.231 40.7968C112.894 40.7968 113.531 40.7783 114.193 40.7783C114.576 40.7783 114.958 40.7783 115.34 40.7043C115.544 40.6673 115.697 40.7598 115.875 40.7783C115.926 40.7783 115.952 40.8152 115.926 40.8522C115.926 40.8707 115.901 40.8892 115.875 40.8892C115.799 40.9077 115.722 40.9262 115.646 40.9262C115.442 40.9077 115.238 40.8707 115.034 40.9077C114.983 40.9077 114.907 40.9262 114.881 40.9816C114.856 41.0186 114.932 41.0556 115.009 41.0741C115.06 41.0741 115.085 41.0741 115.136 41.0741C115.187 41.0741 115.213 41.0741 115.264 41.0741C115.824 41.0741 116.41 41.0926 116.971 41.0926C117.022 41.0926 117.047 41.0926 117.098 41.111C117.124 41.1295 117.175 41.148 117.175 41.1665C117.175 41.185 117.149 41.222 117.124 41.2405C117.098 41.2774 117.047 41.2959 116.971 41.3514C117.098 41.3514 117.175 41.3514 117.251 41.3514C117.353 41.3699 117.455 41.3329 117.506 41.2774C117.659 41.0926 117.914 41.0371 118.168 41.0001C118.5 40.9631 118.856 40.9077 119.188 40.9816C119.34 41.0186 119.519 41.0001 119.672 41.0001C120.003 41.0001 120.334 40.9816 120.64 40.9631C120.818 40.9631 120.997 40.9816 121.175 41.0186C121.379 41.0741 121.557 41.0741 121.761 41.0001C121.838 40.9631 121.965 40.9447 122.041 40.9631C122.245 40.9816 122.449 40.9447 122.653 40.9077C122.78 40.8892 122.933 40.8892 123.061 40.9447C122.959 41.0556 122.806 41.0926 122.653 41.111C122.551 41.1295 122.449 41.1295 122.347 41.148C122.322 41.148 122.322 41.185 122.296 41.2035C122.296 41.2035 122.322 41.222 122.347 41.222C122.602 41.2589 122.831 41.2589 123.061 41.2035C123.163 41.185 123.213 41.0926 123.163 41.0186C123.137 40.9816 123.086 40.9447 123.061 40.9077C123.188 40.9262 123.341 40.9447 123.468 40.9631C123.545 40.9816 123.621 40.9447 123.672 40.9077C123.698 40.9262 123.723 40.9447 123.749 40.9631C123.901 41.0556 124.08 41.0741 124.258 41.0001C124.386 40.9262 124.538 40.8892 124.717 40.8892C125.175 40.8522 125.609 40.8707 126.067 40.8707C126.271 40.8707 126.373 40.9077 126.399 41.0556C126.399 41.0926 126.449 41.0926 126.5 41.0741C126.526 41.0556 126.577 41.0371 126.577 41.0001C126.679 40.8337 126.832 40.7968 127.061 40.7968C127.239 40.7968 127.367 40.8522 127.418 40.9816C127.443 41.0371 127.52 41.0371 127.571 41.0001C127.723 40.8337 127.927 40.7783 128.182 40.7783C128.513 40.7783 128.845 40.7598 129.15 40.7598C129.201 40.7598 129.278 40.7598 129.329 40.7598C129.456 40.7783 129.558 40.8152 129.609 40.9077C129.634 40.9447 129.66 40.9816 129.736 40.9816C129.813 40.9816 129.838 40.9447 129.864 40.9077C129.889 40.8707 129.889 40.8152 129.915 40.7783C129.94 40.7413 129.991 40.6858 130.042 40.6858C130.271 40.6673 130.526 40.6304 130.756 40.6858C131.087 40.7598 131.393 40.7598 131.724 40.6858C131.902 40.6489 132.081 40.6304 132.259 40.6489C132.59 40.6673 132.921 40.6673 133.227 40.6673C133.431 40.6673 133.635 40.6489 133.839 40.6304C133.915 40.6304 133.966 40.5749 133.915 40.501C133.915 40.464 133.89 40.4455 133.864 40.427C133.864 40.3715 133.864 40.3346 133.941 40.3161C134.017 40.2976 134.094 40.2606 134.17 40.2606C134.348 40.2421 134.527 40.2606 134.731 40.2606C134.832 40.2606 134.934 40.2791 135.036 40.2606C135.317 40.2052 135.571 40.2421 135.775 40.3531C135.699 40.3715 135.597 40.3531 135.469 40.3531C135.342 40.3531 135.215 40.3531 135.113 40.3715C134.985 40.3715 134.858 40.39 134.756 40.39C134.629 40.4085 134.552 40.464 134.552 40.5194C134.552 40.5749 134.629 40.6489 134.756 40.6489C135.062 40.6489 135.368 40.6489 135.673 40.6489C135.699 40.6489 135.75 40.6673 135.775 40.6858L135.775 40.7228C135.648 40.7413 135.495 40.7598 135.368 40.7783C135.317 40.7783 135.266 40.8152 135.215 40.8337C135.215 40.8337 135.189 40.8707 135.215 40.8707C135.368 40.9262 135.52 40.9631 135.673 40.9262C135.903 40.8892 136.106 40.8337 136.336 40.8337C136.361 40.8337 136.387 40.7968 136.387 40.7783C136.387 40.7228 136.387 40.6858 136.463 40.6858C136.54 40.6858 136.616 40.6858 136.693 40.6858C136.718 40.6858 136.769 40.7043 136.794 40.7413C136.973 40.9262 137.202 40.9816 137.482 40.9262C137.61 40.9077 137.712 40.9077 137.839 40.8892C137.865 40.8892 137.89 40.8337 137.865 40.8152C137.865 40.7783 137.814 40.7228 137.839 40.6858C137.865 40.6489 137.941 40.6304 137.992 40.6304C138.221 40.5934 138.476 40.5934 138.705 40.6304C138.731 40.6304 138.756 40.6858 138.731 40.7043C138.705 40.7228 138.655 40.7413 138.629 40.7598C138.604 40.7783 138.578 40.8152 138.604 40.8337C138.604 40.8522 138.655 40.8892 138.68 40.8892C138.833 40.8892 139.011 40.8707 139.113 40.7783C139.215 40.6858 139.317 40.6304 139.47 40.6304C139.776 40.5934 140.081 40.5749 140.387 40.5379C140.591 40.5194 140.795 40.5379 140.973 40.5934C141.101 40.6304 141.152 40.6673 141.126 40.6858C141.075 40.7413 140.999 40.7413 140.922 40.7598C140.795 40.7783 140.667 40.7783 140.566 40.7783C140.54 40.7783 140.515 40.7968 140.464 40.8152C140.795 40.8337 141.126 40.8707 141.432 40.8892C141.585 40.8892 141.712 40.8892 141.865 40.8707C142.145 40.8522 142.426 40.8337 142.706 40.8522C142.833 40.8707 142.935 40.8337 143.063 40.8337C143.165 40.8152 143.19 40.7783 143.139 40.6858C143.114 40.6489 143.114 40.6304 143.165 40.6119C143.19 40.6119 143.241 40.5934 143.292 40.5934C143.496 40.6119 143.7 40.6119 143.903 40.5934C144.056 40.5749 144.235 40.5934 144.388 40.5934C144.566 40.5934 144.693 40.6304 144.795 40.7413C144.923 40.8707 145.101 40.8152 145.228 40.7598C145.305 40.7228 145.356 40.6489 145.432 40.5934C145.585 40.501 145.763 40.4455 145.942 40.4825C146.248 40.5564 146.528 40.5749 146.834 40.5564C146.91 40.5564 146.987 40.5749 147.063 40.5749C147.139 40.5749 147.139 40.6119 147.114 40.6673C147.063 40.7783 147.088 40.8337 147.241 40.8337C147.649 40.8337 148.057 40.8152 148.464 40.8152C148.566 40.8152 148.694 40.7968 148.719 40.7043C148.77 40.5934 148.847 40.5749 148.999 40.5749C149.05 40.5749 149.127 40.5749 149.178 40.5934C149.229 40.5934 149.229 40.6304 149.229 40.6673C149.203 40.7413 149.305 40.7783 149.356 40.7968C149.535 40.8522 149.713 40.7968 149.866 40.7228C149.866 40.7228 149.84 40.6673 149.815 40.6489C149.789 40.6119 149.789 40.5934 149.84 40.5749C150.121 40.5194 150.401 40.5564 150.656 40.6673L150.656 40.6489C150.707 40.7228 150.783 40.7783 150.911 40.7413L150.885 40.7598C151.063 40.7598 151.242 40.7228 151.42 40.7413C151.598 40.7598 151.777 40.7968 151.955 40.8152C152.006 40.8152 152.108 40.7783 152.108 40.7598C152.108 40.7413 152.083 40.7043 152.057 40.7043C152.032 40.6858 151.981 40.6858 151.955 40.6673C151.955 40.6673 151.93 40.6489 151.93 40.6304C151.93 40.6119 151.955 40.5934 151.955 40.5934C152.235 40.5749 152.516 40.5564 152.796 40.5379C152.949 40.5194 153.076 40.5749 153.127 40.6858C153.153 40.7598 153.255 40.7968 153.357 40.8152C153.484 40.8337 153.611 40.8337 153.713 40.8337C154.248 40.8337 154.809 40.8337 155.344 40.8337C155.522 40.8337 155.701 40.8152 155.879 40.7598C155.905 40.7598 155.93 40.7413 155.93 40.7413C155.956 40.7043 155.93 40.6858 155.879 40.6858C155.65 40.6673 155.395 40.6673 155.166 40.6489C155.166 40.6489 155.14 40.6304 155.14 40.6119C155.14 40.5934 155.166 40.5749 155.166 40.5749C155.242 40.5564 155.319 40.5379 155.395 40.5564C155.624 40.5934 155.828 40.6119 156.058 40.5749C156.185 40.5564 156.338 40.5934 156.465 40.5934C156.593 40.5934 156.695 40.6119 156.822 40.6304C156.822 40.6858 156.796 40.7228 156.796 40.7598C156.822 40.7968 156.873 40.8337 156.924 40.8337C157.051 40.8522 157.204 40.8707 157.332 40.8892C157.357 40.8892 157.382 40.9262 157.408 40.9262C157.382 40.9447 157.332 40.9447 157.306 40.9631C157.255 40.9816 157.204 40.9816 157.128 41.0001C157.128 41.0001 157.128 41.0186 157.128 41.0371C157.128 41.0556 157.153 41.0556 157.179 41.0556C157.484 41.0741 157.79 41.0001 157.994 40.8337C158.096 40.8337 158.198 40.8337 158.274 40.8337C158.3 40.8337 158.3 40.7968 158.325 40.7783C158.3 40.7598 158.249 40.7413 158.223 40.7413C158.147 40.7598 158.045 40.8152 157.969 40.8337C157.918 40.7968 157.867 40.7413 157.816 40.7043C157.816 40.6858 157.79 40.6673 157.79 40.6673C157.816 40.6489 157.841 40.6119 157.867 40.6119C158.019 40.6119 158.147 40.5934 158.3 40.5934C158.453 40.5934 158.58 40.6304 158.682 40.7228C158.733 40.7598 158.784 40.7413 158.835 40.7043C158.886 40.6673 158.911 40.6119 158.962 40.6119C159.192 40.5749 159.395 40.5379 159.625 40.5564C160.134 40.6304 160.644 40.5934 161.154 40.5749C161.281 40.5749 161.383 40.5379 161.485 40.4825C161.587 40.427 161.714 40.427 161.816 40.4825C161.943 40.5749 162.096 40.5934 162.275 40.5934C162.453 40.5934 162.631 40.5934 162.835 40.5934C162.861 40.5934 162.912 40.6119 162.937 40.6304C162.963 40.6489 162.886 40.7228 162.835 40.7228C162.708 40.7413 162.606 40.7413 162.479 40.7598C162.428 40.7598 162.402 40.7968 162.428 40.8337C162.428 40.8522 162.453 40.8522 162.479 40.8522C162.861 40.8152 163.243 40.8892 163.625 40.8152C163.651 40.8152 163.676 40.7968 163.676 40.7968C163.651 40.7783 163.651 40.7598 163.625 40.7228C163.6 40.7043 163.574 40.6858 163.549 40.6489C163.549 40.6489 163.549 40.6119 163.574 40.6119C163.6 40.5934 163.651 40.5934 163.676 40.5934C163.931 40.5934 164.16 40.5749 164.415 40.5934C164.746 40.5934 165.078 40.6119 165.383 40.5749C165.511 40.5564 165.638 40.5749 165.74 40.5749C165.995 40.5934 166.224 40.6119 166.479 40.6119C166.581 40.6119 166.632 40.6489 166.606 40.6858C166.581 40.7043 166.555 40.7228 166.504 40.7228C166.148 40.7413 165.816 40.7598 165.46 40.7228C165.128 40.6858 164.797 40.7043 164.491 40.7043C164.466 40.7043 164.415 40.7228 164.415 40.7598C164.415 40.7783 164.441 40.8152 164.466 40.8152C164.593 40.8337 164.695 40.8522 164.823 40.8707C164.95 40.8892 165.103 40.9262 165.256 40.9816C165.281 40.9816 165.332 40.9631 165.383 40.9447C165.536 40.8707 165.715 40.8337 165.893 40.8707C166.224 40.9262 166.53 40.9077 166.861 40.9077C167.014 40.9077 167.141 40.9077 167.294 40.8892C167.498 40.8522 167.702 40.8707 167.906 40.9077C168.059 40.9447 168.212 40.9631 168.39 40.9447C168.492 40.9447 168.594 40.9631 168.696 40.9631C168.772 40.9631 168.849 40.9816 168.925 40.9816C169.638 40.9077 170.352 40.9077 171.065 40.9447C171.091 40.9447 171.116 40.9447 171.116 40.9447C171.142 40.9262 171.193 40.9262 171.218 40.9077C171.218 40.8892 171.193 40.8522 171.167 40.8337C171.065 40.7598 171.065 40.7228 171.167 40.6858C171.32 40.6489 171.473 40.6119 171.626 40.5934C171.804 40.5564 171.983 40.5564 172.136 40.6673C172.187 40.7043 172.237 40.7228 172.288 40.7228C172.492 40.7043 172.696 40.7783 172.874 40.7968C173.027 40.8152 173.206 40.8337 173.359 40.8152C173.588 40.7783 173.792 40.7968 174.021 40.8152C174.327 40.8522 174.633 40.8337 174.938 40.7598C175.04 40.7228 175.168 40.7228 175.295 40.7043C175.372 40.7043 175.473 40.7043 175.524 40.7043C175.728 40.7413 175.907 40.7968 176.11 40.7228C176.136 40.7228 176.161 40.7228 176.161 40.7228C176.62 40.8522 177.13 40.8337 177.588 40.9447C177.614 40.9447 177.614 41.0001 177.614 41.0186C177.614 41.0186 177.588 41.0371 177.563 41.0371C177.512 41.0371 177.486 41.0371 177.435 41.0371C177.232 40.9816 177.002 40.9816 176.773 41.0001C176.747 41.0001 176.697 41.0186 176.671 41.0371C176.646 41.0371 176.646 41.0556 176.646 41.0741C176.646 41.0926 176.646 41.111 176.671 41.111C176.697 41.1295 176.747 41.148 176.773 41.148C177.053 41.1665 177.334 41.1665 177.639 41.1665C177.996 41.1665 178.327 41.1665 178.684 41.222C178.939 41.2589 179.219 41.2774 179.474 41.2405C179.499 41.2405 179.55 41.2035 179.55 41.185C179.55 41.1665 179.499 41.1295 179.474 41.1295C179.372 41.111 179.27 41.111 179.168 41.0926C179.041 41.0741 178.964 41.0001 178.888 40.9447C179.219 40.9816 179.576 41.0001 179.907 41.0001C180.06 41.0001 180.238 41.0186 180.391 41.0186C180.671 41.0371 180.952 41.0556 181.232 41.0556C181.436 41.0556 181.64 41.0926 181.844 41.111C181.894 41.111 181.92 41.148 181.894 41.1665C181.894 41.185 181.869 41.185 181.844 41.185C181.665 41.185 181.487 41.185 181.308 41.185C181.054 41.185 180.824 41.1665 180.57 41.1665C180.544 41.1665 180.519 41.2035 180.519 41.222L180.544 41.259C180.722 41.3144 180.901 41.3329 181.079 41.3514C181.436 41.3699 181.818 41.3699 182.175 41.3884C182.277 41.3884 182.379 41.3514 182.43 41.2959C182.481 41.2405 182.506 41.2035 182.557 41.148C182.582 41.1295 182.633 41.111 182.659 41.111C182.71 41.111 182.786 41.111 182.837 41.148C182.888 41.185 182.863 41.222 182.837 41.259C182.786 41.3329 182.812 41.3699 182.888 41.3884C182.939 41.4069 183.016 41.4069 183.067 41.4069C183.143 41.4069 183.245 41.3884 183.245 41.3329C183.27 41.222 183.372 41.185 183.5 41.185C183.729 41.185 183.958 41.148 184.162 41.2405C184.188 41.2405 184.188 41.259 184.188 41.2774C184.188 41.2959 184.188 41.3144 184.162 41.3144C184.06 41.3329 183.984 41.3514 183.882 41.3699C183.856 41.3699 183.831 41.3884 183.831 41.3884C183.856 41.4069 183.856 41.4438 183.882 41.4438C184.239 41.4808 184.595 41.5178 184.978 41.5548C185.029 41.5548 185.054 41.5548 185.105 41.5548C185.818 41.5178 186.532 41.5917 187.22 41.6102C187.271 41.6102 187.296 41.6102 187.347 41.6102C187.831 41.5917 188.265 41.6657 188.723 41.7581C188.851 41.7766 188.953 41.7766 189.08 41.7766C189.207 41.7581 189.335 41.7396 189.437 41.7581C189.921 41.8321 190.405 41.8136 190.889 41.8506C191.322 41.8875 191.73 41.869 192.163 41.9615C192.265 41.98 192.392 41.98 192.52 41.98C192.876 41.98 193.208 41.98 193.539 42.0354C193.513 42.0539 193.463 42.0724 193.437 42.0909C193.412 42.0909 193.412 42.1094 193.412 42.1279C193.412 42.1464 193.437 42.1648 193.437 42.1648C193.488 42.1833 193.513 42.1648 193.513 42.1279C193.513 42.0909 193.513 42.0724 193.513 42.0354C193.641 42.0354 193.768 42.0169 193.87 42.0169C194.15 42.0354 194.431 42.0539 194.711 42.0909C194.966 42.1279 195.246 42.1464 195.501 42.1464C195.756 42.1464 195.985 42.1833 196.163 42.3312C196.291 42.4237 196.469 42.4237 196.597 42.3312C196.724 42.2388 196.826 42.2203 196.979 42.2388C197.081 42.2573 197.183 42.2573 197.285 42.2943C197.616 42.3682 197.947 42.4237 198.304 42.4237C198.38 42.4237 198.457 42.4422 198.533 42.4606C198.584 42.4791 198.635 42.5346 198.584 42.5716C198.559 42.5901 198.533 42.627 198.508 42.627C198.253 42.627 197.973 42.6085 197.718 42.6085C197.692 42.6085 197.641 42.627 197.616 42.627L197.59 42.664C197.641 42.738 197.718 42.8119 197.845 42.8489C198.049 42.9044 198.278 42.9413 198.508 42.9413C198.508 42.9783 198.533 43.0338 198.533 43.0707C198.559 43.1817 198.635 43.2556 198.788 43.2926C198.915 43.3111 199.068 43.3481 199.17 43.4035C199.247 43.4405 199.374 43.459 199.45 43.4405C199.807 43.3665 200.164 43.4035 200.521 43.496C200.572 43.5144 200.648 43.5329 200.699 43.5144C201.132 43.496 201.54 43.6254 201.947 43.6808C202.126 43.7178 202.304 43.7363 202.483 43.7178C202.865 43.6808 203.247 43.6993 203.629 43.7548C203.757 43.7733 203.909 43.7733 204.062 43.7733C204.164 43.7918 204.266 43.7918 204.343 43.8287C204.521 43.9027 204.674 43.9212 204.878 43.9212C205.285 43.9581 205.693 43.9951 206.101 44.0321C206.228 44.0506 206.33 44.0691 206.432 44.1245C206.457 44.143 206.457 44.18 206.457 44.1985C206.457 44.1985 206.432 44.217 206.406 44.217C206.789 44.106 206.61 44.0691 206.457 43.9951ZM171.473 41.3884L171.473 41.3699C171.473 41.3699 171.473 41.4069 171.473 41.3884C171.499 41.3884 171.499 41.3699 171.524 41.3699L171.524 41.3884C171.499 41.3884 171.499 41.3884 171.473 41.3884ZM125.252 40.8337C125.252 40.8522 125.252 40.8522 125.252 40.8707C125.252 40.8892 125.252 40.8892 125.252 40.9077C125.252 40.8707 125.252 40.8522 125.252 40.8337ZM136.616 41.185C136.616 41.2035 136.642 41.2035 136.642 41.222C136.616 41.2035 136.616 41.2035 136.616 41.185ZM203.476 44.2724C203.502 44.2909 203.527 44.3094 203.553 44.3279C203.553 44.3279 203.578 44.3464 203.604 44.3464C203.629 44.3464 203.629 44.3279 203.655 44.3279C203.629 44.3094 203.629 44.2909 203.604 44.2724C203.553 44.2724 203.502 44.2909 203.476 44.2724ZM116.028 41.7211C116.079 41.7211 116.13 41.7211 116.181 41.7211C116.206 41.7211 116.232 41.7211 116.232 41.7027C116.232 41.7027 116.257 41.6842 116.257 41.6657C116.232 41.6657 116.181 41.6287 116.155 41.6472C116.104 41.6657 116.054 41.6842 116.028 41.7211ZM133.635 40.6489C133.711 40.7228 133.839 40.7413 133.966 40.7413C134.017 40.7413 134.094 40.7413 134.094 40.6858C134.119 40.6489 134.043 40.6119 133.966 40.6119C133.864 40.6304 133.737 40.6489 133.635 40.6489ZM195.603 42.3867C195.705 42.4606 195.807 42.5161 195.96 42.5161C196.087 42.5161 196.189 42.5161 196.316 42.5161C196.367 42.5161 196.393 42.4976 196.342 42.4422C196.112 42.4237 195.858 42.4052 195.603 42.3867C195.552 42.3867 195.526 42.3867 195.475 42.3867C195.45 42.3867 195.424 42.3867 195.424 42.3867L195.399 42.4052C195.424 42.4052 195.475 42.4237 195.501 42.4052C195.526 42.4052 195.577 42.3867 195.603 42.3867ZM195.119 42.627C195.144 42.664 195.17 42.701 195.221 42.738C195.272 42.7749 195.348 42.8304 195.424 42.8304C195.73 42.8674 196.011 42.9044 196.316 42.8674C196.342 42.8674 196.367 42.8304 196.367 42.7934C196.367 42.7749 196.316 42.738 196.291 42.738C196.24 42.738 196.163 42.738 196.112 42.738C195.781 42.7749 195.475 42.738 195.119 42.627C194.94 42.627 194.762 42.6455 194.584 42.6455C194.533 42.6455 194.507 42.6455 194.456 42.6455C194.431 42.664 194.405 42.6825 194.405 42.701C194.431 42.7195 194.456 42.738 194.507 42.738C194.711 42.7749 194.915 42.701 195.119 42.627ZM165.995 41.4993C166.224 41.6287 166.479 41.6102 166.759 41.6102C166.785 41.5732 166.759 41.5548 166.708 41.5363C166.632 41.4993 166.581 41.4623 166.606 41.3884C166.632 41.3329 166.708 41.2959 166.785 41.2774C166.836 41.2589 166.912 41.2589 166.963 41.2589C167.04 41.2589 167.116 41.2589 167.218 41.2589C167.32 41.2589 167.371 41.2035 167.32 41.185C167.294 41.1665 167.243 41.148 167.218 41.148C166.938 41.185 166.657 41.185 166.377 41.185C166.25 41.185 166.224 41.222 166.275 41.3144C166.326 41.4069 166.301 41.4623 166.173 41.4808C166.122 41.4993 166.046 41.4993 165.995 41.4993C165.969 41.4993 165.969 41.4993 165.944 41.4993C165.969 41.4993 165.995 41.4993 165.995 41.4993ZM193.539 42.5161C193.361 42.5531 193.208 42.5901 193.029 42.6455L193.029 42.6825C193.233 42.7564 193.437 42.7749 193.666 42.7564C193.692 42.7564 193.692 42.738 193.717 42.7195C193.717 42.701 193.743 42.6825 193.717 42.6825C193.641 42.6085 193.59 42.5531 193.539 42.5161C193.768 42.4237 194.023 42.4052 194.303 42.4237C194.431 42.4237 194.533 42.4422 194.66 42.4422C194.686 42.4422 194.711 42.4052 194.737 42.3867C194.737 42.3867 194.711 42.3682 194.711 42.3497C194.558 42.2943 194.431 42.2388 194.278 42.1833C193.998 42.2758 193.692 42.2573 193.386 42.2573C193.259 42.2573 193.157 42.2388 193.029 42.2388C193.004 42.2388 192.953 42.2573 192.927 42.2758C192.927 42.2758 192.902 42.2943 192.902 42.3127C192.902 42.3312 192.927 42.3497 192.927 42.3497C193.029 42.3682 193.131 42.3682 193.233 42.3682C193.335 42.3497 193.463 42.4052 193.539 42.5161ZM197.31 42.5531C197.31 42.6085 197.285 42.664 197.285 42.7195C197.259 42.7749 197.234 42.8304 197.132 42.8489C197.081 42.8674 197.004 42.8859 197.055 42.9413C197.539 43.0338 198.049 43.0707 198.559 43.0338C198.61 43.0338 198.635 42.9968 198.635 42.9783C198.635 42.9598 198.584 42.9228 198.559 42.9228C198.508 42.9044 198.431 42.9044 198.38 42.9044C198.202 42.9413 198.023 42.9044 197.845 42.8489C197.743 42.8119 197.692 42.7564 197.667 42.6825C197.641 42.5716 197.565 42.5346 197.412 42.5346C197.386 42.5531 197.336 42.5531 197.31 42.5531ZM96.1534 41.0001C95.6948 41.148 95.6184 41.1665 95.2107 41.185C94.803 41.185 94.3953 41.2035 93.9876 41.2035C93.6054 41.2035 93.2232 41.2035 92.841 41.2035C92.8155 41.2035 92.7901 41.222 92.7901 41.222C92.7646 41.2405 92.7901 41.2774 92.841 41.2774C93.1213 41.2774 93.4016 41.2589 93.6819 41.2774C94.3698 41.2774 95.0578 41.2959 95.7458 41.2774C95.9496 41.2774 96.1534 41.2589 96.3573 41.2774C96.9179 41.3144 97.5039 41.2774 98.0645 41.2589C98.2683 41.2589 98.4722 41.222 98.6505 41.185C98.6505 41.185 98.676 41.1665 98.676 41.148C98.676 41.1295 98.6505 41.1295 98.6505 41.111C98.3702 41.0926 98.0899 41.0741 97.8097 41.0556C97.5294 41.0556 97.2491 41.0926 96.9688 41.0556C96.6885 41.111 96.4082 41.0741 96.1534 41.0001ZM90.2165 41.185C89.7579 41.185 89.2738 41.185 88.8151 41.185C88.7642 41.185 88.6877 41.2035 88.6368 41.2035C88.6368 41.2035 88.6113 41.222 88.6113 41.2405C88.6113 41.2589 88.6113 41.2774 88.6368 41.2774C88.7132 41.2959 88.7897 41.3144 88.8661 41.3144C89.4267 41.3144 89.9617 41.3329 90.5223 41.3329C90.879 41.3329 91.2612 41.3144 91.618 41.3144C91.6689 41.3144 91.7199 41.2959 91.7708 41.2774C91.7708 41.2774 91.7963 41.2405 91.7708 41.2405C91.7199 41.222 91.6689 41.185 91.618 41.185C91.1593 41.185 90.6752 41.185 90.2165 41.185ZM92.6627 40.9262C93.0958 40.9077 93.4525 40.9631 93.8093 40.9447C94.0131 40.9447 94.2169 40.9447 94.4208 40.9447C94.9814 40.9447 95.5674 40.9262 96.128 40.9262C96.2044 40.9262 96.2554 40.8707 96.2299 40.8522C96.2044 40.8337 96.1789 40.7968 96.1534 40.7968C95.8732 40.7598 95.5929 40.7413 95.3126 40.7598C94.9814 40.7968 94.6246 40.8337 94.2934 40.7783C94.2424 40.7783 94.2169 40.7783 94.166 40.7783C93.8347 40.8337 93.478 40.8152 93.1213 40.8152C92.9939 40.8152 92.841 40.8152 92.6627 40.9262ZM200.062 43.6993C200.189 43.6993 200.342 43.7178 200.47 43.7178C200.979 43.7548 201.489 43.7918 201.973 43.9027C202.253 43.9766 202.533 43.9581 202.814 43.8842C202.839 43.8842 202.865 43.8657 202.839 43.8472C202.839 43.8287 202.839 43.7918 202.814 43.7733C202.661 43.7178 202.457 43.6993 202.279 43.6808C201.642 43.6623 200.979 43.6254 200.342 43.6069C200.266 43.6069 200.189 43.6069 200.113 43.6254C200.062 43.6439 200.036 43.6623 200.062 43.6993ZM100.179 40.7968C100.409 40.8152 100.536 40.8337 100.663 40.8337C101.377 40.8337 102.09 40.8152 102.778 40.8152C102.855 40.8152 102.931 40.8152 103.008 40.7968C103.033 40.7968 103.084 40.7783 103.11 40.7598C103.11 40.7598 103.135 40.7228 103.11 40.7228C103.059 40.7043 103.008 40.6673 102.957 40.6673C102.345 40.7043 101.759 40.6304 101.148 40.6858C100.842 40.6673 100.562 40.7043 100.179 40.7968ZM104.027 40.7228C104.231 40.7783 104.435 40.7783 104.638 40.7598C105.275 40.7413 105.938 40.7228 106.575 40.7043C106.626 40.7043 106.702 40.6858 106.753 40.6858C106.804 40.6858 106.83 40.6489 106.804 40.6304C106.804 40.6119 106.779 40.6119 106.753 40.6119C106.32 40.6119 105.912 40.6304 105.479 40.5749C105.352 40.5564 105.199 40.5564 105.046 40.5564C104.689 40.5564 104.511 40.5749 104.027 40.7228ZM184.341 42.0724C184.239 42.0724 184.137 42.0724 184.035 42.0724C184.009 42.0724 183.958 42.1094 183.958 42.1279C183.958 42.1464 183.984 42.1833 184.009 42.1833C184.341 42.2573 184.672 42.2758 185.029 42.2573C185.181 42.2573 185.309 42.2388 185.462 42.2388C185.742 42.2573 186.022 42.2758 186.303 42.2943C186.455 42.2943 186.634 42.2943 186.787 42.2943C186.812 42.2943 186.838 42.2758 186.838 42.2758C186.838 42.2573 186.812 42.2203 186.787 42.2018C186.685 42.1464 186.557 42.1464 186.43 42.1464C186.124 42.1464 185.818 42.1279 185.513 42.1464C185.207 42.1648 184.927 42.0724 184.621 42.0539C184.544 42.0724 184.443 42.0724 184.341 42.0724ZM190.532 42.4237C190.456 42.4237 190.405 42.4237 190.328 42.4422C190.303 42.4422 190.277 42.4606 190.227 42.4791C190.252 42.4976 190.277 42.5161 190.328 42.5346C190.405 42.5531 190.481 42.5716 190.558 42.5716C191.067 42.6085 191.577 42.627 192.087 42.6455C192.112 42.6455 192.138 42.6455 192.138 42.627C192.163 42.627 192.163 42.6085 192.163 42.5901C192.163 42.5716 192.163 42.5531 192.138 42.5531C191.908 42.5346 191.653 42.4976 191.424 42.4791C191.144 42.4606 190.838 42.4422 190.532 42.4237ZM160.466 40.464C160.313 40.464 160.134 40.4825 159.981 40.4825C159.956 40.4825 159.905 40.5194 159.905 40.5379C159.905 40.5564 159.931 40.6119 159.956 40.6119C160.313 40.6673 160.669 40.6858 161.026 40.6489C161.052 40.6489 161.103 40.6119 161.103 40.5934C161.103 40.5749 161.077 40.5379 161.052 40.5194C160.873 40.464 160.669 40.464 160.466 40.464ZM202.432 44.3094C202.483 44.3094 202.508 44.3094 202.533 44.3094C202.559 44.2909 202.584 44.2724 202.61 44.2539C202.584 44.2355 202.559 44.1985 202.533 44.1985C202.304 44.18 202.049 44.143 201.82 44.1245C201.616 44.1245 201.412 44.106 201.234 44.0691C201.081 44.0506 200.928 44.0506 200.75 44.0321C200.75 44.0321 200.724 44.0506 200.724 44.0691C200.724 44.0876 200.75 44.106 200.75 44.106C200.801 44.1245 200.877 44.1245 200.928 44.143C201.31 44.1615 201.693 44.1985 202.049 44.2724C202.177 44.2909 202.33 44.2909 202.432 44.3094ZM158.911 41.4993L158.937 41.5178C159.421 41.5363 159.905 41.5548 160.389 41.5548C160.669 41.5548 160.95 41.5363 161.281 41.5178C160.313 41.4069 160.211 41.4438 158.911 41.4993ZM98.2938 40.7968C97.8351 40.6858 97.4275 40.7413 97.0198 40.8152C96.9943 40.8152 96.9943 40.8337 96.9943 40.8522C96.9943 40.8707 96.9943 40.8892 97.0198 40.8892C97.0962 40.9077 97.1727 40.9262 97.2491 40.9262C97.6058 40.9262 97.9371 40.8707 98.2938 40.7968ZM129.66 41.3884C129.558 41.3514 129.456 41.3144 129.329 41.2774C129.227 41.2405 129.125 41.2589 129.048 41.2959C128.972 41.3329 128.947 41.4068 128.997 41.4438C129.074 41.4993 129.125 41.5548 129.099 41.6287C129.099 41.6842 129.227 41.7211 129.278 41.7027C129.405 41.6287 129.507 41.5548 129.634 41.4808C129.634 41.4438 129.634 41.4253 129.66 41.3884ZM191.373 42.2573C191.348 42.2573 191.45 42.2573 191.552 42.2388C191.577 42.2388 191.628 42.2018 191.628 42.1833C191.628 42.1648 191.628 42.1279 191.602 42.1094C191.526 42.0539 191.424 41.9985 191.348 42.0354C191.093 42.0909 190.838 42.0724 190.583 42.1094C190.558 42.1094 190.558 42.1279 190.558 42.1464C190.558 42.1648 190.583 42.1833 190.583 42.1833C190.762 42.2573 190.991 42.2573 191.373 42.2573ZM192.01 43.1632C192.138 43.1447 192.265 43.1447 192.367 43.1262C192.392 43.1262 192.392 43.1077 192.392 43.0892C192.392 43.0707 192.367 43.0153 192.341 43.0153C192.087 42.9968 191.832 42.9598 191.577 42.9413C191.475 42.9413 191.373 42.9598 191.271 42.9598C191.22 42.9598 191.195 42.9783 191.195 43.0153C191.195 43.0338 191.246 43.0707 191.271 43.0707C191.552 43.1262 191.781 43.1447 192.01 43.1632ZM141.483 41.3144C141.585 41.3144 141.687 41.2959 141.789 41.2774C141.814 41.2774 141.865 41.2405 141.865 41.222C141.89 41.185 141.865 41.1295 141.84 41.0926C141.687 40.9447 141.304 41.0186 141.253 41.2035C141.253 41.222 141.279 41.2589 141.304 41.2774C141.381 41.2959 141.432 41.2959 141.483 41.3144ZM186.71 41.8875C186.838 41.906 186.94 41.8506 186.94 41.7951C186.94 41.7396 186.94 41.6842 186.914 41.6287C186.838 41.5363 186.659 41.5178 186.557 41.5732C186.481 41.6102 186.481 41.7396 186.583 41.8136C186.608 41.8506 186.685 41.869 186.71 41.8875ZM132.386 41.7211C132.463 41.7211 132.616 41.7027 132.743 41.6842C132.769 41.6842 132.82 41.6657 132.845 41.6472C132.845 41.6472 132.845 41.6287 132.845 41.6102C132.845 41.5917 132.82 41.5917 132.794 41.5732C132.616 41.5363 132.437 41.5178 132.259 41.5732C132.208 41.5917 132.157 41.6287 132.132 41.6472C132.106 41.6657 132.183 41.7211 132.259 41.7211C132.284 41.7211 132.31 41.7211 132.386 41.7211ZM88.3565 40.8152C88.2546 40.8337 88.1526 40.8337 88.0507 40.8337C87.9998 40.8337 87.9743 40.8522 87.9743 40.8892C87.9743 40.9077 87.9998 40.9077 88.0252 40.9077C88.2036 40.9262 88.382 40.9447 88.5603 40.9631C88.6113 40.9631 88.6877 40.9631 88.7387 40.9447C88.7642 40.9447 88.7897 40.9077 88.8406 40.8892C88.8151 40.8707 88.7897 40.8337 88.7642 40.8337C88.6368 40.8337 88.5094 40.8337 88.3565 40.8152ZM135.775 41.0001C135.852 41.0001 135.903 41.0001 135.928 40.9816C135.954 40.9631 135.979 40.9447 135.979 40.9077L135.954 40.8707C135.826 40.8152 135.622 40.8337 135.52 40.9077L135.52 40.9447C135.597 40.9816 135.699 40.9816 135.775 41.0001ZM164.848 41.5917C164.925 41.5732 164.95 41.5732 165.001 41.5732C165.027 41.5548 165.052 41.5363 165.052 41.4993C165.052 41.4993 165.027 41.4808 165.027 41.4623C164.899 41.4253 164.772 41.4253 164.619 41.4438C164.568 41.4438 164.542 41.4808 164.568 41.4993C164.568 41.5178 164.593 41.5178 164.593 41.5363C164.695 41.5732 164.772 41.5732 164.848 41.5917ZM148.617 41.1665C148.592 41.148 148.592 41.1295 148.592 41.1295C148.388 41.0926 148.159 41.0926 147.929 41.111C147.878 41.111 147.853 41.1295 147.878 41.1665C147.878 41.185 147.904 41.185 147.929 41.185C148.159 41.2405 148.388 41.222 148.617 41.1665ZM126.042 41.7027C125.965 41.7027 125.889 41.7211 125.838 41.7211C125.812 41.7211 125.787 41.7396 125.787 41.7396C125.761 41.7581 125.761 41.7951 125.812 41.8136C125.863 41.8321 125.914 41.869 125.965 41.8875C126.067 41.9245 126.195 41.906 126.271 41.8136C126.297 41.7951 126.271 41.7396 126.246 41.7396C126.169 41.7211 126.093 41.7211 126.042 41.7027ZM140.718 41.6657C140.846 41.6657 140.922 41.6102 140.948 41.5363C140.948 41.5178 140.922 41.4808 140.897 41.4623C140.795 41.4253 140.693 41.4438 140.616 41.4808C140.566 41.4993 140.566 41.5732 140.591 41.5917C140.642 41.6287 140.693 41.6472 140.718 41.6657ZM157.612 41.148C157.586 41.1295 157.561 41.0741 157.561 41.0741C157.433 41.0741 157.332 41.0926 157.204 41.0926C157.179 41.0926 157.179 41.111 157.179 41.1295C157.179 41.148 157.179 41.1665 157.179 41.1665C157.306 41.2589 157.408 41.2589 157.561 41.2035C157.561 41.2035 157.586 41.1665 157.612 41.148ZM172.925 40.8522C173.027 40.8337 173.104 40.8337 173.18 40.8152C173.231 40.8152 173.257 40.7783 173.231 40.7413C173.231 40.7228 173.206 40.7228 173.18 40.7043C173.027 40.6673 172.874 40.6673 172.722 40.7413L172.722 40.7783C172.798 40.8152 172.874 40.8337 172.925 40.8522ZM150.172 41.4993C150.426 41.5178 150.554 41.5363 150.681 41.5548C150.707 41.5548 150.732 41.5363 150.732 41.5363C150.732 41.4993 150.707 41.4808 150.681 41.4808C150.528 41.4623 150.375 41.4438 150.172 41.4993ZM172.034 41.7396C172.136 41.7396 172.187 41.7396 172.212 41.7396C172.237 41.7396 172.288 41.7027 172.314 41.6842C172.339 41.6657 172.263 41.6102 172.187 41.6102C172.059 41.6102 171.957 41.6287 171.83 41.6287C171.804 41.6287 171.779 41.6472 171.779 41.6472C171.804 41.6657 171.804 41.7027 171.855 41.7027C171.932 41.7396 172.008 41.7396 172.034 41.7396ZM152.439 40.7783C152.439 40.7968 152.439 40.7968 152.414 40.8152C152.49 40.8152 152.567 40.8337 152.643 40.8152C152.72 40.8152 152.796 40.8337 152.847 40.7783C152.72 40.7783 152.567 40.7783 152.439 40.7783ZM112.588 41.8506C112.588 41.8321 112.588 41.8136 112.563 41.8136C112.486 41.7581 112.384 41.7581 112.308 41.8136C112.282 41.8321 112.282 41.869 112.282 41.8875C112.359 41.98 112.512 41.98 112.563 41.8875C112.588 41.8875 112.588 41.869 112.588 41.8506ZM165.256 41.148C165.256 41.0926 165.23 41.0371 165.179 41.0556C165.154 41.0556 165.103 41.0741 165.078 41.0926C165.052 41.111 165.027 41.148 165.027 41.1665C165.001 41.2035 165.052 41.2589 165.103 41.2589C165.205 41.2405 165.256 41.222 165.256 41.148ZM153.357 41.1295C153.331 41.111 153.306 41.0741 153.28 41.0741C153.204 41.0741 153.127 41.0926 153.051 41.0926C153.025 41.0926 153 41.111 153 41.111C153 41.1295 153.025 41.1665 153.025 41.185C153.102 41.2405 153.204 41.2405 153.28 41.185C153.331 41.185 153.331 41.148 153.357 41.1295ZM92.0002 40.8707C91.8218 40.8522 91.8218 40.8522 91.6689 40.8892C91.7708 40.8892 91.8728 40.9262 92.0002 40.8707ZM138.833 41.5732C138.833 41.5548 138.833 41.5363 138.807 41.5178C138.756 41.4808 138.705 41.4623 138.655 41.4993C138.629 41.5178 138.604 41.5363 138.604 41.5732C138.604 41.5917 138.655 41.6287 138.68 41.6287C138.731 41.6102 138.782 41.5917 138.833 41.5732ZM186.685 42.8674C186.71 42.8674 186.736 42.8489 186.736 42.8489C186.736 42.8304 186.736 42.8119 186.736 42.8119C186.659 42.7934 186.608 42.7564 186.532 42.738C186.506 42.738 186.481 42.738 186.481 42.738C186.481 42.7564 186.481 42.7934 186.481 42.8119C186.532 42.8674 186.608 42.8859 186.685 42.8674ZM154.07 41.4993C154.172 41.4993 154.223 41.4808 154.223 41.4438C154.223 41.4069 154.197 41.3884 154.146 41.3884C154.096 41.3884 154.045 41.4069 154.019 41.4438C154.019 41.4808 154.045 41.4993 154.07 41.4993ZM145.407 41.148C145.381 41.1295 145.33 41.0926 145.305 41.0741C145.254 41.0556 145.203 41.0926 145.152 41.1295C145.126 41.1665 145.152 41.222 145.203 41.2405C145.305 41.2589 145.381 41.222 145.407 41.148ZM119.239 41.8136C119.264 41.8136 119.29 41.8136 119.29 41.8136C119.366 41.7951 119.417 41.7396 119.442 41.6842C119.442 41.6657 119.417 41.6287 119.391 41.6102L119.34 41.6102C119.239 41.6472 119.188 41.6842 119.213 41.7766C119.213 41.7766 119.239 41.7951 119.239 41.8136ZM144.082 42.4237C144.082 42.3867 144.056 42.3682 144.005 42.3682C143.954 42.3682 143.929 42.3867 143.929 42.4237C143.929 42.4606 143.954 42.4791 144.005 42.4791C144.056 42.4791 144.082 42.4606 144.082 42.4237ZM199.756 44.0321C199.782 44.0321 199.833 44.0321 199.858 44.0321C199.884 44.0321 199.909 43.9951 199.909 43.9766L199.884 43.9581C199.807 43.9581 199.731 43.9397 199.654 43.9581C199.629 43.9581 199.603 43.9951 199.578 44.0136C199.603 44.0136 199.603 44.0321 199.629 44.0321C199.68 44.0321 199.705 44.0321 199.756 44.0321ZM175.219 40.7783C175.168 40.7783 175.091 40.8337 175.117 40.8522C175.142 40.8707 175.168 40.8892 175.219 40.8892C175.244 40.8892 175.27 40.8892 175.27 40.8892C175.295 40.8707 175.346 40.8522 175.346 40.8337C175.346 40.8152 175.321 40.7968 175.27 40.7783C175.27 40.7783 175.244 40.7783 175.219 40.7783ZM156.159 41.185C156.21 41.185 156.236 41.185 156.236 41.185C156.287 41.185 156.312 41.1665 156.287 41.148C156.287 41.148 156.261 41.1295 156.236 41.1295C156.21 41.1295 156.185 41.1295 156.185 41.1295C156.134 41.1295 156.083 41.148 156.032 41.1665C156.083 41.148 156.134 41.1665 156.159 41.185ZM149.56 40.8337C149.56 40.8152 149.56 40.7968 149.56 40.7783C149.509 40.7783 149.458 40.7598 149.407 40.7598C149.382 40.7598 149.356 40.7783 149.356 40.7783C149.382 40.7968 149.382 40.8337 149.407 40.8337C149.458 40.8522 149.509 40.8337 149.56 40.8337ZM178.531 41.9245C178.557 41.9245 178.608 41.943 178.658 41.943C178.709 41.943 178.76 41.8875 178.76 41.8506C178.735 41.8136 178.658 41.7951 178.608 41.8136C178.531 41.8321 178.48 41.869 178.531 41.9245ZM187.271 42.0539C187.322 42.0539 187.398 42.0539 187.424 42.0354C187.449 42.0354 187.449 41.9985 187.475 41.9615C187.449 41.943 187.398 41.9245 187.373 41.9245C187.347 41.9245 187.296 41.943 187.271 41.9615C187.245 41.98 187.271 42.0169 187.271 42.0539ZM189.258 42.4052C189.258 42.3867 189.258 42.3682 189.233 42.3682C189.156 42.3312 189.08 42.3312 189.003 42.3682C189.003 42.3682 188.978 42.4052 189.003 42.4052C189.029 42.4422 189.105 42.4606 189.156 42.4422C189.207 42.4422 189.233 42.4052 189.258 42.4052ZM120.283 41.6842C120.283 41.6657 120.258 41.6472 120.258 41.6472C120.207 41.6472 120.156 41.6472 120.079 41.6472C120.054 41.6472 120.028 41.6657 120.028 41.6657C120.054 41.6842 120.054 41.7211 120.079 41.7211C120.207 41.7396 120.309 41.7211 120.283 41.6842ZM114.193 41.2405C114.219 41.222 114.27 41.2035 114.27 41.185C114.295 41.148 114.219 41.111 114.168 41.111C114.143 41.111 114.092 41.148 114.092 41.1665C114.066 41.222 114.117 41.2589 114.193 41.2405ZM125.303 41.5178C125.328 41.5178 125.328 41.5363 125.354 41.5363C125.405 41.5363 125.43 41.5363 125.481 41.5178C125.507 41.5178 125.507 41.4993 125.507 41.4808C125.507 41.4438 125.43 41.4253 125.354 41.4438C125.303 41.4623 125.277 41.4808 125.303 41.5178ZM181.41 42.0539C181.461 42.0539 181.487 42.0539 181.487 42.0169C181.487 41.9985 181.461 41.9985 181.436 41.9985C181.41 41.9985 181.359 41.9985 181.334 42.0169C181.308 42.0354 181.359 42.0539 181.41 42.0539ZM116.614 41.98C116.665 41.98 116.691 41.9615 116.691 41.9245C116.665 41.906 116.64 41.8875 116.589 41.8875C116.563 41.8875 116.512 41.906 116.487 41.9245C116.487 41.9245 116.487 41.9615 116.512 41.9615C116.538 41.98 116.563 41.98 116.614 41.98ZM173.537 41.7766C173.537 41.7581 173.562 41.7396 173.562 41.7027C173.562 41.7027 173.537 41.6842 173.511 41.6842C173.486 41.7027 173.461 41.7211 173.461 41.7396C173.461 41.7766 173.486 41.7951 173.537 41.7766ZM152.363 41.5178C152.388 41.5178 152.414 41.4993 152.465 41.4993C152.439 41.4808 152.439 41.4623 152.439 41.4623C152.414 41.4623 152.363 41.4808 152.337 41.4808C152.337 41.4993 152.337 41.4993 152.363 41.5178ZM142.324 41.5363C142.349 41.5363 142.375 41.5178 142.375 41.5178C142.4 41.4808 142.349 41.4623 142.298 41.4808C142.273 41.4808 142.247 41.4993 142.222 41.5178C142.247 41.5178 142.247 41.5363 142.273 41.5363C142.273 41.5363 142.298 41.5363 142.324 41.5363ZM198.38 43.9212C198.406 43.9212 198.431 43.9212 198.431 43.9212C198.457 43.9212 198.457 43.9027 198.457 43.9027C198.431 43.9027 198.406 43.8842 198.355 43.8842L198.329 43.9027C198.355 43.9027 198.38 43.9027 198.38 43.9212ZM175.83 41.111C175.83 41.1295 175.83 41.148 175.856 41.148C175.907 41.1665 175.932 41.148 175.932 41.1295C175.932 41.111 175.932 41.0926 175.907 41.0926C175.881 41.0556 175.856 41.0741 175.83 41.111ZM182.812 42.0539C182.812 42.0354 182.812 42.0169 182.812 42.0169C182.786 42.0169 182.735 42.0169 182.71 42.0169C182.71 42.0354 182.71 42.0539 182.735 42.0539C182.761 42.0909 182.786 42.0909 182.812 42.0539ZM178.557 41.6102C178.582 41.6102 178.633 41.5917 178.658 41.5917C178.658 41.5732 178.633 41.5363 178.633 41.5363C178.608 41.5363 178.557 41.5363 178.557 41.5548C178.48 41.5732 178.506 41.5917 178.557 41.6102ZM177.767 41.869C177.792 41.869 177.818 41.8506 177.869 41.8506C177.869 41.8321 177.869 41.8136 177.843 41.8136C177.818 41.8136 177.792 41.8136 177.741 41.8321C177.767 41.8506 177.767 41.869 177.767 41.869ZM125.889 43.2186L125.863 43.2002L125.838 43.2371L125.889 43.2186ZM177.053 41.869C177.079 41.869 177.079 41.8506 177.104 41.8506C177.104 41.8321 177.079 41.8321 177.079 41.8321C177.028 41.8136 177.002 41.8321 177.028 41.869C177.002 41.869 177.028 41.869 177.053 41.869ZM175.881 40.9077C175.932 40.9077 175.958 40.8892 175.958 40.8707C175.958 40.8522 175.932 40.8337 175.932 40.8337C175.907 40.8337 175.881 40.8522 175.83 40.8522C175.856 40.8707 175.881 40.8892 175.881 40.9077ZM129.227 41.0741C129.252 41.0741 129.252 41.0556 129.278 41.0556C129.278 41.0371 129.252 41.0371 129.252 41.0186C129.201 41.0001 129.176 41.0186 129.201 41.0556C129.176 41.0741 129.201 41.0741 129.227 41.0741ZM130.119 41.4438C130.093 41.4808 130.119 41.4993 130.17 41.4808L130.17 41.4438C130.144 41.4438 130.119 41.4438 130.119 41.4438ZM122.831 41.6472L122.831 41.6842L122.882 41.6657L122.831 41.6472ZM159.523 41.148L159.548 41.1665C159.599 41.1665 159.625 41.148 159.599 41.1295C159.599 41.1295 159.574 41.1295 159.548 41.1295C159.548 41.1295 159.523 41.1295 159.523 41.148ZM168.008 41.5917C168.033 41.5917 168.033 41.5917 168.059 41.5732L168.033 41.5548C168.033 41.5548 168.008 41.5548 167.982 41.5732C167.982 41.5917 167.982 41.5917 168.008 41.5917ZM143.114 41.5178C143.165 41.5178 143.215 41.5363 143.215 41.4623C143.215 41.4623 143.165 41.4623 143.114 41.4623L143.088 41.4808C143.088 41.5178 143.114 41.5178 143.114 41.5178ZM194.456 43.2186L194.482 43.2371L194.507 43.2186L194.482 43.2002C194.482 43.2002 194.456 43.2002 194.456 43.2186ZM197.106 42.4052C197.132 42.4052 197.132 42.3867 197.157 42.3867L197.132 42.3682C197.132 42.3682 197.106 42.3682 197.081 42.3867C197.081 42.3867 197.081 42.3867 197.106 42.4052ZM191.934 43.4775C191.959 43.4775 191.959 43.459 191.985 43.459C191.985 43.4405 191.959 43.4405 191.959 43.422C191.908 43.4035 191.883 43.422 191.908 43.459C191.883 43.4775 191.908 43.4775 191.934 43.4775ZM107.951 41.3514L108.002 41.3514C108.027 41.3144 108.002 41.3144 107.951 41.3144C107.925 41.3144 107.925 41.3329 107.9 41.3329C107.9 41.3329 107.925 41.3329 107.951 41.3514ZM99.4659 40.7968C99.4659 40.7783 99.4404 40.7598 99.4404 40.7598C99.4149 40.7598 99.364 40.7598 99.3385 40.7783C99.3385 40.7968 99.364 40.8152 99.364 40.8152C99.3894 40.8152 99.4149 40.7968 99.4659 40.7968ZM131.622 41.0001C131.647 41.0001 131.647 41.0186 131.673 41.0001L131.698 40.9816C131.698 40.9447 131.647 40.9447 131.622 40.9631C131.596 40.9631 131.622 40.9816 131.622 41.0001ZM195.628 42.1094C195.603 42.0909 195.603 42.0909 195.577 42.0909C195.552 42.0909 195.552 42.1094 195.526 42.1094C195.552 42.1279 195.552 42.1279 195.577 42.1279C195.577 42.1279 195.603 42.1279 195.628 42.1094ZM134.68 40.5934C134.654 40.5934 134.654 40.5749 134.629 40.5934C134.578 40.6119 134.578 40.6304 134.629 40.6304C134.629 40.6304 134.654 40.6304 134.68 40.6304C134.68 40.6119 134.68 40.6119 134.68 40.5934ZM168.747 40.9447C168.721 40.9447 168.721 40.9262 168.696 40.9262C168.645 40.9447 168.645 40.9631 168.696 40.9816L168.747 40.9816C168.747 40.9816 168.747 40.9631 168.747 40.9447ZM197.336 43.8102L197.31 43.7918L197.31 43.8102L197.336 43.8102ZM142.145 40.8892L142.145 40.8522L142.094 40.8707L142.145 40.8892ZM197.641 43.5514L197.692 43.5329L197.667 43.5144L197.641 43.5514ZM137.584 42.5531L137.61 42.5716L137.61 42.5531L137.584 42.5531ZM170.479 41.6287C170.505 41.6287 170.505 41.6287 170.53 41.6102C170.53 41.5917 170.53 41.5732 170.505 41.5732C170.505 41.5732 170.479 41.5732 170.454 41.5917C170.454 41.6102 170.454 41.6102 170.479 41.6287ZM161.51 41.148L161.485 41.1295L161.459 41.148L161.485 41.1665C161.485 41.1665 161.485 41.148 161.51 41.148ZM169.205 41.148L169.18 41.1295C169.18 41.1295 169.154 41.1295 169.129 41.148L169.154 41.1665C169.18 41.148 169.205 41.148 169.205 41.148ZM147.292 41.5178L147.292 41.4808L147.241 41.4993L147.292 41.5178ZM179.397 42.4791C179.448 42.4976 179.474 42.4791 179.448 42.4422C179.448 42.4422 179.423 42.4422 179.397 42.4422C179.397 42.4606 179.397 42.4791 179.397 42.4791ZM183.704 41.7766L183.755 41.7581L183.729 41.7396L183.704 41.7766ZM128.208 41.0741C128.233 41.0741 128.233 41.0556 128.259 41.0556L128.233 41.0371C128.233 41.0371 128.208 41.0556 128.182 41.0556C128.182 41.0556 128.182 41.0741 128.208 41.0741ZM128.386 41.6842C128.386 41.6657 128.36 41.6472 128.36 41.6472C128.335 41.6472 128.31 41.6657 128.259 41.6657C128.259 41.6842 128.284 41.7027 128.284 41.7027C128.31 41.7027 128.335 41.6842 128.386 41.6842ZM204.241 44.3464L204.266 44.3649L204.292 44.3464L204.266 44.3279C204.266 44.3279 204.266 44.3279 204.241 44.3464ZM191.883 41.869C191.934 41.8875 191.959 41.869 191.934 41.8321C191.934 41.8321 191.908 41.8321 191.883 41.8321C191.857 41.8321 191.883 41.8506 191.883 41.869ZM130.017 41.0741C130.042 41.0741 130.068 41.0741 130.068 41.0556C130.068 41.0186 130.068 41.0186 130.017 41.0186L129.991 41.0371C129.991 41.0556 130.017 41.0741 130.017 41.0741ZM151.344 42.3867L151.318 42.3682C151.318 42.3682 151.293 42.3867 151.267 42.3867L151.293 42.4052C151.318 42.4052 151.344 42.4052 151.344 42.3867ZM125.099 41.111C125.099 41.1295 125.099 41.1295 125.099 41.148C125.124 41.148 125.124 41.148 125.15 41.148C125.15 41.1295 125.15 41.111 125.15 41.111C125.15 41.111 125.124 41.111 125.099 41.111ZM160.032 41.0926C160.058 41.0926 160.083 41.0926 160.083 41.0741C160.083 41.0741 160.083 41.0556 160.058 41.0371C160.032 41.0371 160.007 41.0371 160.007 41.0556C160.032 41.0741 160.032 41.0926 160.032 41.0926ZM156.032 40.7968L156.032 40.7598L155.981 40.7783L156.032 40.7968ZM105.734 41.4253L105.734 41.3884L105.683 41.4068L105.734 41.4253ZM116.487 41.3329L116.487 41.3144L116.436 41.3144L116.487 41.3329ZM189.36 41.7766C189.386 41.7766 189.386 41.7766 189.411 41.7581L189.386 41.7396C189.386 41.7396 189.36 41.7396 189.36 41.7581C189.335 41.7581 189.36 41.7766 189.36 41.7766ZM188.902 42.0169L188.902 42.0354L188.927 42.0169L188.902 42.0169Z" fill="black"/>
<path d="M126.832 40.0757C127.163 40.0388 127.443 40.0388 127.723 39.9833C127.8 39.9648 127.876 39.9648 127.953 39.9648C128.36 39.9833 128.768 39.9463 129.176 39.9094C129.227 39.9094 129.252 39.9094 129.303 39.9094C129.329 39.9094 129.38 39.9278 129.405 39.9463C129.456 40.0018 129.405 40.0203 129.354 40.0388C129.329 40.0573 129.278 40.0757 129.278 40.0942C129.278 40.1497 129.354 40.1497 129.405 40.1682C129.533 40.1867 129.685 40.2052 129.838 40.1867C130.17 40.1497 130.475 40.1682 130.807 40.1682C130.858 40.1682 130.883 40.1682 130.934 40.1867C130.959 40.2052 130.985 40.2236 131.01 40.2606L130.985 40.2976C130.73 40.3715 130.45 40.427 130.17 40.3715C129.94 40.3346 129.736 40.3346 129.507 40.3346C129.074 40.3346 128.615 40.3161 128.182 40.3161C128.182 40.3161 128.157 40.2791 128.182 40.2791C128.31 40.2236 128.462 40.2791 128.59 40.2421C128.641 40.2236 128.666 40.2052 128.641 40.1867C128.641 40.1682 128.615 40.1682 128.59 40.1682C128.284 40.1497 127.978 40.1497 127.673 40.1497C127.367 40.0942 127.112 40.0942 126.832 40.0757Z" fill="black"/>
<path d="M120.869 40.4825C120.36 40.4825 119.85 40.4825 119.34 40.4825C119.137 40.4825 118.933 40.501 118.754 40.5749C118.653 40.6119 118.551 40.6119 118.449 40.5934C118.296 40.5749 118.194 40.5194 118.219 40.4825C118.27 40.427 118.347 40.4085 118.423 40.4085C118.653 40.4085 118.882 40.39 119.086 40.4085C119.366 40.427 119.646 40.427 119.952 40.4085C120.079 40.4085 120.207 40.39 120.309 40.4085C120.64 40.427 120.946 40.4085 121.277 40.3715C121.71 40.3346 122.118 40.3531 122.551 40.3531C122.602 40.3531 122.627 40.3715 122.678 40.3715C122.704 40.3715 122.704 40.39 122.729 40.4085C122.755 40.4455 122.729 40.4825 122.704 40.4825C122.576 40.501 122.424 40.5194 122.271 40.5194C121.914 40.4825 121.532 40.501 121.175 40.5194C121.073 40.4825 120.971 40.4825 120.869 40.4825Z" fill="black"/>
<path d="M122.296 40.0942C122.271 40.0942 122.271 40.1127 122.245 40.1127C122.016 40.1312 121.761 40.1497 121.532 40.1867C121.481 40.1867 121.455 40.2052 121.404 40.2052C120.869 40.2052 120.36 40.2421 119.825 40.2421C119.723 40.2421 119.621 40.2236 119.544 40.1682C119.544 40.1682 119.519 40.1497 119.544 40.1312C119.544 40.1127 119.57 40.1127 119.57 40.0942C119.595 40.0757 119.595 40.0757 119.621 40.0757C120.487 40.0388 121.353 40.0018 122.245 40.0388C122.271 40.0388 122.271 40.0573 122.296 40.0573C122.271 40.0757 122.271 40.0757 122.296 40.0942Z" fill="black"/>
<path d="M170.454 40.6304C170.403 40.6304 170.275 40.6304 170.174 40.6119C170.148 40.6119 170.123 40.5749 170.123 40.5379C170.123 40.5194 170.174 40.4825 170.199 40.4825C170.403 40.4825 170.607 40.4825 170.785 40.501C170.811 40.501 170.836 40.5379 170.836 40.5564C170.836 40.5749 170.785 40.6119 170.76 40.6119C170.658 40.6304 170.581 40.6304 170.454 40.6304Z" fill="black"/>
<path d="M125.456 40.1127C125.379 40.1127 125.303 40.1127 125.226 40.1127C125.201 40.1127 125.175 40.0942 125.15 40.0757C125.15 40.0573 125.175 40.0573 125.175 40.0388C125.405 39.9648 125.66 39.9463 125.94 39.9648C125.965 39.9648 125.991 39.9833 125.991 39.9833C125.991 40.0018 125.965 40.0388 125.94 40.0388C125.787 40.0757 125.634 40.0942 125.456 40.1127Z" fill="black"/>
<path d="M81.8335 40.7043C81.6807 40.7598 81.5533 40.7413 81.4259 40.7413C81.1711 40.7228 80.8908 40.7413 80.636 40.6858C80.6105 40.6858 80.6105 40.6673 80.6105 40.6489C80.6105 40.6304 80.636 40.6119 80.636 40.6119C80.8908 40.6304 81.1456 40.6489 81.4259 40.6304C81.5788 40.6304 81.6807 40.6489 81.8335 40.7043Z" fill="black"/>
<path d="M123.723 40.0388C123.698 40.0573 123.698 40.0757 123.672 40.0942C123.545 40.1867 123.392 40.2052 123.213 40.1682C123.163 40.1497 123.086 40.0942 123.112 40.0757C123.137 40.0573 123.163 40.0203 123.188 40.0203C123.315 39.9833 123.468 39.9463 123.596 39.9648C123.647 39.9648 123.698 40.0203 123.723 40.0388Z" fill="black"/>
<path d="M168.186 40.5564C167.906 40.5379 167.778 40.6119 167.626 40.5379C167.6 40.5379 167.6 40.5194 167.6 40.501C167.6 40.4825 167.6 40.4825 167.626 40.464C167.626 40.4455 167.651 40.4455 167.677 40.4455C167.957 40.4455 168.237 40.4455 168.517 40.464C168.543 40.464 168.568 40.501 168.594 40.5194C168.568 40.5194 168.568 40.5379 168.543 40.5379C168.364 40.5564 168.212 40.5564 168.186 40.5564Z" fill="black"/>
<path d="M187.551 41.0926C187.78 41.0926 187.984 41.0926 188.214 41.0926C188.341 41.0926 188.443 41.1295 188.519 41.2035C188.545 41.222 188.519 41.259 188.494 41.2774C188.468 41.2959 188.417 41.3144 188.392 41.3144C188.163 41.222 187.908 41.222 187.653 41.148C187.628 41.1295 187.602 41.111 187.551 41.0926Z" fill="black"/>
<path d="M135.444 39.9463C135.393 39.9278 135.291 39.9094 135.189 39.8909C135.164 39.8909 135.164 39.8724 135.164 39.8539C135.189 39.8354 135.189 39.7984 135.215 39.7799C135.342 39.743 135.444 39.743 135.546 39.7984C135.571 39.8169 135.597 39.8354 135.597 39.8724C135.597 39.8909 135.546 39.9094 135.52 39.9094C135.546 39.9463 135.52 39.9463 135.444 39.9463Z" fill="black"/>
<path d="M210.764 44.7901C211.018 44.7716 211.222 44.8086 211.426 44.864C211.171 44.901 211.171 44.901 210.764 44.7901Z" fill="black"/>
<path d="M140.26 40.0573C140.489 40.0573 140.693 40.0388 140.897 40.0388C140.948 40.0388 140.973 40.0573 140.973 40.0942C140.973 40.1127 140.948 40.1127 140.922 40.1127C140.693 40.1312 140.489 40.1127 140.26 40.0573Z" fill="black"/>
<path d="M173.817 40.2606C174.123 40.2052 174.327 40.1867 174.531 40.2421C174.276 40.3161 174.276 40.3161 173.817 40.2606Z" fill="black"/>
<path d="M176.009 40.3346C175.703 40.39 175.703 40.39 175.448 40.3531C175.448 40.3531 175.423 40.3346 175.448 40.3161C175.448 40.2976 175.473 40.2976 175.499 40.2976C175.652 40.2606 175.83 40.2976 176.009 40.3346Z" fill="black"/>
<path d="M126.526 40.3715C126.475 40.3715 126.398 40.3531 126.348 40.3531C126.322 40.3531 126.297 40.3346 126.297 40.3346C126.297 40.3161 126.322 40.2791 126.348 40.2606C126.449 40.2052 126.577 40.2236 126.704 40.2421C126.73 40.2421 126.781 40.2791 126.781 40.2976C126.781 40.3161 126.755 40.3531 126.704 40.3531C126.628 40.3715 126.577 40.3715 126.526 40.3715Z" fill="black"/>
<path d="M140.183 39.706C140.387 39.7245 140.591 39.6875 140.769 39.7799C140.464 39.8539 140.464 39.8539 140.183 39.706Z" fill="black"/>
<path d="M138.629 40.0942C138.807 40.0573 138.833 40.0388 138.884 40.0388C138.935 40.0388 139.011 40.0388 139.062 40.0388C139.164 40.0388 139.266 40.0573 139.393 40.0942C139.19 40.0942 138.986 40.0942 138.629 40.0942Z" fill="black"/>
<path d="M124.895 40.3715C125.124 40.2606 125.252 40.2421 125.405 40.2976L125.405 40.3346C125.252 40.39 125.074 40.3346 124.895 40.3715Z" fill="black"/>
<path d="M187.22 41.222C186.94 41.259 186.71 41.1665 186.43 41.1665C186.404 41.1665 186.379 41.1665 186.379 41.1665L186.379 41.148C186.659 41.111 186.94 41.185 187.22 41.222Z" fill="black"/>
<path d="M161.943 40.1312C161.867 40.1312 161.791 40.0942 161.816 40.0757C161.842 40.0573 161.867 40.0203 161.892 40.0203C161.943 40.0018 162.02 40.0018 162.071 40.0018C162.096 40.0018 162.122 40.0018 162.122 40.0203C162.147 40.0203 162.147 40.0388 162.173 40.0573C162.198 40.0942 162.173 40.1127 162.122 40.1312C162.096 40.1312 162.096 40.1497 162.071 40.1497C162.02 40.1312 161.994 40.1312 161.943 40.1312Z" fill="black"/>
<path d="M132.692 40.1682C132.565 40.2236 132.437 40.2421 132.31 40.2421C132.31 40.2421 132.284 40.2236 132.284 40.2052C132.284 40.1867 132.284 40.1682 132.31 40.1682C132.437 40.1497 132.565 40.1312 132.692 40.1682Z" fill="black"/>
<path d="M159.497 39.706C159.676 39.6875 159.829 39.669 159.981 39.706C159.956 39.7245 159.905 39.743 159.88 39.743C159.752 39.743 159.625 39.7615 159.497 39.706Z" fill="black"/>
<path d="M185.258 41.148C185.232 41.1295 185.207 41.1295 185.181 41.111C185.207 41.0926 185.232 41.0741 185.258 41.0556C185.334 41.0371 185.411 41.0926 185.36 41.111C185.334 41.148 185.309 41.148 185.258 41.148Z" fill="black"/>
<path d="M179.346 40.7783C179.194 40.8152 179.066 40.8892 178.888 40.8522C178.862 40.8522 178.862 40.8337 178.862 40.8152C178.862 40.7968 178.862 40.7783 178.888 40.7783C179.041 40.7413 179.194 40.7968 179.346 40.7783Z" fill="black"/>
<path d="M172.492 40.2976C172.441 40.2976 172.416 40.2791 172.416 40.2421C172.416 40.2236 172.441 40.2236 172.467 40.2236C172.492 40.2052 172.543 40.2052 172.569 40.2052C172.594 40.2052 172.645 40.2236 172.671 40.2421C172.645 40.2606 172.62 40.2976 172.594 40.2976C172.569 40.2976 172.518 40.2976 172.492 40.2976Z" fill="black"/>
<path d="M142.477 40.464C142.451 40.4455 142.426 40.4455 142.4 40.427C142.426 40.427 142.426 40.4085 142.451 40.4085C142.477 40.4085 142.527 40.4085 142.553 40.4085C142.604 40.4085 142.629 40.427 142.604 40.4455C142.604 40.4455 142.578 40.464 142.553 40.464C142.553 40.464 142.528 40.464 142.477 40.464Z" fill="black"/>
<path d="M117.251 40.5564C117.226 40.5379 117.175 40.5379 117.149 40.5194C117.124 40.501 117.175 40.464 117.251 40.464C117.277 40.464 117.302 40.464 117.302 40.464C117.328 40.4825 117.353 40.501 117.378 40.5194C117.353 40.5379 117.328 40.5379 117.277 40.5564C117.277 40.5564 117.277 40.5564 117.251 40.5564Z" fill="black"/>
<path d="M132.259 39.9833C132.132 39.9833 132.081 39.9648 132.132 39.9463C132.157 39.9463 132.208 39.9463 132.233 39.9463C132.259 39.9463 132.284 39.9648 132.31 39.9833C132.31 39.9833 132.284 39.9833 132.259 39.9833Z" fill="black"/>
<path d="M154.248 40.427C154.223 40.4455 154.172 40.4455 154.146 40.4455C154.096 40.4455 154.07 40.4085 154.096 40.39C154.121 40.3715 154.172 40.3531 154.197 40.3715C154.223 40.3715 154.223 40.4085 154.248 40.427Z" fill="black"/>
<path d="M161.485 39.706C161.408 39.706 161.383 39.7245 161.357 39.7245C161.332 39.7245 161.306 39.7245 161.281 39.706C161.306 39.706 161.306 39.706 161.332 39.706C161.383 39.706 161.408 39.706 161.485 39.706Z" fill="black"/>
<path d="M140.183 39.706C140.107 39.743 140.005 39.7799 139.929 39.7984C139.903 39.7984 139.878 39.7799 139.852 39.7614L139.878 39.7245C139.979 39.7245 140.081 39.7245 140.183 39.706Z" fill="black"/>
<path d="M150.987 40.4825C151.038 40.4455 151.063 40.4085 151.114 40.39C151.14 40.3715 151.191 40.3715 151.216 40.39C151.242 40.4085 151.267 40.4455 151.267 40.464C151.267 40.501 151.242 40.5564 151.242 40.5934L151.267 40.5749C151.165 40.5379 151.089 40.501 150.987 40.4825Z" fill="black"/>
<path d="M144.184 39.6875C144.209 39.706 144.235 39.7245 144.26 39.743C144.235 39.7614 144.209 39.7799 144.184 39.7799C144.107 39.7799 144.056 39.7245 144.082 39.706C144.107 39.706 144.133 39.706 144.184 39.6875Z" fill="black"/>
<path d="M217.924 38.0606C217.873 38.0606 217.847 38.0421 217.847 38.0236C217.847 38.0051 217.924 38.0051 217.949 38.0051C217.975 38.0051 218 38.0236 218 38.0236C218 38.0421 217.975 38.0606 217.924 38.0606Z" fill="black"/>
<path d="M133.278 39.8909C133.278 39.8724 133.278 39.8724 133.304 39.8539C133.329 39.8539 133.329 39.8539 133.355 39.8539C133.355 39.8539 133.38 39.8724 133.38 39.8909C133.355 39.8909 133.355 39.9094 133.329 39.9094C133.329 39.9094 133.304 39.9094 133.278 39.8909Z" fill="black"/>
<path d="M200.113 42.3497C200.138 42.3497 200.164 42.3312 200.215 42.3312C200.215 42.3312 200.24 42.3497 200.24 42.3682C200.215 42.3682 200.189 42.3867 200.138 42.3867C200.113 42.3867 200.113 42.3682 200.113 42.3497Z" fill="black"/>
<path d="M174.403 40.0203C174.378 40.0203 174.352 40.0203 174.352 40.0018C174.352 39.9648 174.378 39.9648 174.429 39.9648L174.454 39.9833C174.454 40.0018 174.429 40.0018 174.403 40.0203Z" fill="black"/>
<path d="M144.26 40.0942L144.235 40.0757C144.26 40.0573 144.286 40.0573 144.311 40.0942C144.311 40.0757 144.286 40.0942 144.26 40.0942Z" fill="black"/>
<path d="M145.177 39.8169C145.177 39.7984 145.152 39.7984 145.152 39.7799C145.152 39.7614 145.177 39.7614 145.203 39.7614C145.254 39.7614 145.254 39.7984 145.228 39.8169C145.203 39.8169 145.177 39.8169 145.177 39.8169Z" fill="black"/>
<path d="M146.299 39.8169C146.273 39.8169 146.273 39.8354 146.248 39.8354C146.222 39.8354 146.222 39.8169 146.197 39.8169C146.222 39.8169 146.222 39.7984 146.248 39.7984C146.273 39.7799 146.273 39.7984 146.299 39.8169Z" fill="black"/>
<path d="M212.369 44.975C212.343 44.975 212.343 44.9565 212.318 44.9565L212.343 44.938C212.394 44.938 212.42 44.938 212.394 44.975C212.42 44.975 212.394 44.975 212.369 44.975Z" fill="black"/>
<path d="M157.688 40.4085C157.688 40.39 157.663 40.39 157.663 40.3715L157.688 40.3531C157.739 40.3531 157.739 40.3715 157.714 40.4085C157.739 40.4085 157.714 40.4085 157.688 40.4085Z" fill="black"/>
<path d="M129.94 40.0203C129.94 40.0018 129.915 40.0018 129.915 39.9833C129.94 39.9833 129.94 39.9648 129.966 39.9648C130.017 39.9648 130.042 39.9833 130.017 40.0018C129.991 40.0203 129.966 40.0203 129.94 40.0203Z" fill="black"/>
<path d="M169.358 40.5564C169.333 40.5379 169.307 40.5194 169.282 40.5194C169.307 40.5194 169.307 40.501 169.333 40.501C169.358 40.501 169.409 40.501 169.409 40.5194C169.435 40.5379 169.384 40.5564 169.358 40.5564Z" fill="black"/>
<path d="M143.215 39.7799C143.165 39.7614 143.139 39.743 143.165 39.7245C143.19 39.706 143.241 39.706 143.266 39.706L143.292 39.743C143.266 39.7614 143.241 39.7614 143.215 39.7799Z" fill="black"/>
<path d="M213.617 45.0304L213.643 45.0489L213.617 45.0489L213.617 45.0304Z" fill="black"/>
<path d="M199.043 42.7749C199.094 42.7564 199.145 42.7195 199.196 42.701C199.221 42.701 199.247 42.701 199.247 42.701C199.272 42.7195 199.272 42.7564 199.221 42.7564C199.145 42.7749 199.094 42.7749 199.043 42.7749Z" fill="black"/>
<path d="M79.6422 40.6119C79.6168 40.6119 79.6168 40.6304 79.5913 40.6304C79.5403 40.6119 79.5403 40.5934 79.5913 40.5934C79.5913 40.5934 79.6168 40.6119 79.6422 40.6119Z" fill="black"/>
<path d="M141.865 39.7245C141.89 39.7245 141.89 39.706 141.916 39.706C141.941 39.706 141.941 39.7245 141.967 39.7245C141.941 39.7245 141.941 39.743 141.916 39.743C141.89 39.743 141.865 39.7245 141.865 39.7245Z" fill="black"/>
<path d="M137.457 40.5194L137.482 40.501L137.508 40.5194L137.482 40.5379L137.457 40.5194Z" fill="black"/>
<path d="M182.965 40.6119L182.99 40.5934L183.016 40.6119L182.965 40.6119Z" fill="black"/>
<path d="M187.22 41.222L187.22 41.185C187.22 41.2035 187.194 41.222 187.22 41.222Z" fill="black"/>
</svg>
